<svg width="40" height="40" viewBox="0 0 40 40" fill="none" xmlns="http://www.w3.org/2000/svg">
<g filter="url(#filter0_f_1_242)">
<path d="M23.0184 14.0534L5.70887 19.8853C5.61803 19.9159 5.61813 20.0444 5.70901 20.0749L23.0198 25.8782C23.0363 25.8838 23.0511 25.8935 23.0627 25.9065L31.0047 34.8123C31.0675 34.8827 31.1838 34.8351 31.1792 34.7409L30.5842 22.6476C30.5824 22.6105 30.6012 22.5755 30.6332 22.5566L34.8263 20.0775C34.892 20.0387 34.8917 19.9435 34.8257 19.9051L30.6338 17.4619C30.6015 17.4431 30.5824 17.4079 30.5842 17.3706L31.1784 5.30686C31.183 5.21299 31.0674 5.16517 31.0043 5.2349L23.0607 14.0257C23.0492 14.0384 23.0346 14.0479 23.0184 14.0534Z" stroke="#6A8CFF" stroke-width="4"/>
</g>
<path d="M23.3046 14.5185L5.73983 19.8847C5.64547 19.9135 5.64546 20.0471 5.73982 20.076L23.3043 25.4454C23.3219 25.4508 23.3378 25.461 23.35 25.4749L30.4063 33.4607C30.4673 33.5298 30.5812 33.4866 30.5812 33.3945V22.6444C30.5812 22.609 30.5999 22.5763 30.6303 22.5583L34.8263 20.0776C34.892 20.0387 34.8917 19.9435 34.8257 19.9051L30.6309 17.4603C30.6001 17.4424 30.5812 17.4095 30.5812 17.3739V6.65801C30.5812 6.56618 30.4679 6.5229 30.4067 6.59138L23.3499 14.4894C23.3377 14.5031 23.3221 14.5131 23.3046 14.5185Z" fill="url(#paint0_linear_1_242)" stroke="white"/>
<defs>
<filter id="filter0_f_1_242" x="0.640747" y="0.196808" width="39.2346" height="39.6541" filterUnits="userSpaceOnUse" color-interpolation-filters="sRGB">
<feFlood flood-opacity="0" result="BackgroundImageFix"/>
<feBlend mode="normal" in="SourceGraphic" in2="BackgroundImageFix" result="shape"/>
<feGaussianBlur stdDeviation="1.5" result="effect1_foregroundBlur_1_242"/>
</filter>
<linearGradient id="paint0_linear_1_242" x1="5.4269" y1="20" x2="34.9729" y2="20" gradientUnits="userSpaceOnUse">
<stop stop-color="#0F0F3A"/>
<stop offset="0.405" stop-color="#252561"/>
<stop offset="0.67" stop-color="#6969B8"/>
<stop offset="0.96" stop-color="white"/>
</linearGradient>
</defs>
</svg>
