<svg width="71" height="71" viewBox="0 0 71 71" fill="none" xmlns="http://www.w3.org/2000/svg">
<g filter="url(#filter0_f_441_2)">
<path d="M16.3508 53.3582H54.4786C54.5278 47.2816 54.5103 44.7325 52.7964 42.5474C51.0825 40.3623 47.6722 38.5413 43.6553 37.3652C43.3074 37.8046 43.0055 38.1018 42.7658 38.3151C42.4039 38.6374 42.1838 38.7682 41.691 39.6134C41.1983 40.4585 40.4329 42.018 40.3898 42.3406H35.4147H30.4396C30.3965 42.018 29.6311 40.4585 29.1384 39.6134C28.6456 38.7682 28.4255 38.6374 28.0635 38.3151C27.8239 38.1018 27.522 37.8046 27.174 37.3652C23.1572 38.5413 19.7469 40.3623 18.033 42.5474C16.319 44.7325 16.3015 47.2816 16.3508 53.3582Z" stroke="#A184B2" stroke-width="2"/>
<path d="M17.4726 43.3818C17.4883 33.1539 17.2438 29.6204 17.8811 26.9742C18.5488 24.201 20.1849 22.4022 22.6464 21.3595C24.0572 20.7618 25.7391 20.4125 28.2396 20.2383C26.981 21.3107 26.2512 22.5115 25.7367 23.6186C25.2858 24.589 25.0004 25.4874 24.8375 26.6631C23.7005 26.6216 23.638 27.1852 23.6249 28.1449C23.6116 29.118 23.6492 30.4984 23.7117 31.5022C23.7715 32.4633 23.8541 33.0792 25.0263 32.8552C25.3856 34.4545 26.037 35.6976 26.6077 36.5738C26.8071 36.8798 26.9966 37.1411 27.1741 37.3654C23.1572 38.5415 19.7469 40.3625 18.033 42.5476C17.8209 42.818 17.6349 43.0938 17.4726 43.3818Z" stroke="#A184B2" stroke-width="2"/>
<path d="M40.3898 42.3394C40.4329 42.0168 41.1983 40.4574 41.691 39.6123C42.1838 38.7671 42.4039 38.6362 42.7659 38.314C43.1278 37.9918 43.6317 37.4782 44.2217 36.5724C44.7924 35.6962 45.4438 34.4531 45.8031 32.8538C46.9753 33.0778 47.0579 32.4619 47.1177 31.5008C47.1802 30.497 47.2178 29.1166 47.2045 28.1435C47.1914 27.1838 47.1289 26.6202 45.9919 26.6618C45.8291 25.486 45.5436 24.5876 45.0927 23.6172C44.5521 22.4539 43.7737 21.1871 42.3938 20.0745C41.0086 18.9576 39.0174 17.9961 35.4147 17.9961C31.812 17.9961 29.8208 18.9576 28.4356 20.0745C27.0558 21.1871 26.2773 22.4539 25.7367 23.6172C25.2858 24.5876 25.0004 25.486 24.8375 26.6618C23.7005 26.6202 23.638 27.1838 23.6249 28.1435C23.6116 29.1166 23.6493 30.497 23.7117 31.5008C23.7715 32.4619 23.8541 33.0778 25.0263 32.8538C25.3856 34.4531 26.037 35.6962 26.6077 36.5724C27.1977 37.4782 27.7016 37.9918 28.0636 38.314C28.4255 38.6362 28.6456 38.7671 29.1384 39.6123C29.6311 40.4574 30.3965 42.0168 30.4396 42.3394H35.4147H40.3898Z" stroke="#A184B2" stroke-width="2"/>
<path d="M53.3567 43.3818C53.3411 33.1539 53.5855 29.6204 52.9483 26.9742C52.2805 24.201 50.6445 22.4022 48.183 21.3595C46.7722 20.7618 45.0903 20.4125 42.5898 20.2383C43.8483 21.3107 44.5782 22.5115 45.0927 23.6186C45.5436 24.589 45.829 25.4874 45.9919 26.6631C47.1289 26.6216 47.1914 27.1852 47.2045 28.1449C47.2177 29.118 47.1801 30.4984 47.1177 31.5022C47.0579 32.4633 46.9753 33.0792 45.8031 32.8552C45.4438 34.4545 44.7924 35.6976 44.2217 36.5738C44.0223 36.8798 43.8328 37.1411 43.6553 37.3654C47.6722 38.5415 51.0825 40.3625 52.7964 42.5476C53.0085 42.818 53.1945 43.0938 53.3567 43.3818Z" stroke="#A184B2" stroke-width="2"/>
</g>
<path d="M40.3898 42.3394C40.4329 42.0168 41.1983 40.4574 41.691 39.6123C42.1837 38.7671 42.4039 38.6362 42.7658 38.314C43.1278 37.9918 43.6317 37.4782 44.2217 36.5724C44.7924 35.6962 45.4438 34.4531 45.8031 32.8538C46.9753 33.0778 47.0579 32.4619 47.1177 31.5008C47.1801 30.497 47.2177 29.1166 47.2045 28.1435C47.1914 27.1838 47.1289 26.6202 45.9919 26.6618C45.829 25.486 45.5436 24.5876 45.0927 23.6172C44.5521 22.4539 43.7736 21.1871 42.3938 20.0745C41.0086 18.9576 39.0173 17.9961 35.4147 17.9961C31.812 17.9961 29.8208 18.9576 28.4356 20.0745C27.0557 21.1871 26.2773 22.4539 25.7367 23.6172C25.2858 24.5876 25.0003 25.486 24.8374 26.6618C23.7005 26.6202 23.6379 27.1838 23.6249 28.1435C23.6116 29.1166 23.6492 30.497 23.7117 31.5008C23.7715 32.4619 23.8541 33.0778 25.0262 32.8538C25.3856 34.4531 26.0369 35.6962 26.6077 36.5724C27.1977 37.4782 27.7016 37.9918 28.0635 38.314C28.4255 38.6362 28.6456 38.7671 29.1384 39.6123C29.6311 40.4574 30.3964 42.0168 30.4396 42.3394H35.4147H40.3898Z" fill="url(#paint0_linear_441_2)" stroke="white" stroke-width="0.7"/>
<path d="M35.4151 38.5039L35.4151 38.5038L35.4057 38.5039C33.4043 38.5309 31.9169 38.2057 30.7607 37.6435C29.6068 37.0824 28.7592 36.2737 28.053 35.2955C27.2567 34.1925 26.6532 32.8912 26.3416 31.4959C26.0293 30.0976 26.0117 28.6123 26.3422 27.3174C26.6725 26.0235 27.3431 24.9421 28.391 24.3005C29.4187 23.6712 30.8564 23.4268 35.4104 23.3891C39.9644 23.4268 41.402 23.6712 42.4297 24.3005C43.4776 24.9421 44.1482 26.0235 44.4785 27.3174C44.809 28.6123 44.7914 30.0976 44.4791 31.4959L44.8207 31.5722L44.4791 31.4959C44.1675 32.8912 43.564 34.1925 42.7678 35.2955C42.0616 36.2737 41.2139 37.0824 40.06 37.6435C38.9038 38.2057 37.4165 38.5309 35.4151 38.5039Z" fill="url(#paint1_linear_441_2)" stroke="white" stroke-width="0.7"/>
<path d="M16.3508 53.3563H54.4786C54.5278 47.2797 54.5103 44.7305 52.7964 42.5454C51.0825 40.3604 47.6722 38.5393 43.6553 37.3633C43.3074 37.8026 43.0055 38.0998 42.7658 38.3132C42.4039 38.6354 42.1838 38.7663 41.691 39.6114C41.1983 40.4566 40.4329 42.016 40.3898 42.3386H35.4147H30.4396C30.3965 42.016 29.6311 40.4566 29.1384 39.6114C28.6456 38.7663 28.4255 38.6354 28.0635 38.3132C27.8239 38.0998 27.522 37.8026 27.174 37.3633C23.1572 38.5393 19.7469 40.3604 18.033 42.5454C16.319 44.7305 16.3015 47.2797 16.3508 53.3563Z" fill="url(#paint2_linear_441_2)" stroke="white" stroke-width="0.7"/>
<path d="M31.6639 53.3549H39.1655C39.5081 53.3609 39.9202 53.2576 40.204 53.0689C40.4879 52.8802 40.6434 52.6062 40.6343 52.3785V47.3653C40.6434 47.1376 40.4879 46.8636 40.204 46.6749C39.9202 46.4862 39.5081 46.3829 39.1655 46.3889H31.6639C31.3213 46.3829 30.9092 46.4862 30.6253 46.6749C30.3415 46.8636 30.186 47.1376 30.1951 47.3653V52.3785C30.186 52.6062 30.3415 52.8802 30.6253 53.0689C30.9092 53.2576 31.3213 53.3609 31.6639 53.3549Z" fill="url(#paint3_linear_441_2)" stroke="white" stroke-width="0.7"/>
<path d="M53.3567 43.3799C53.3411 33.152 53.5855 29.6185 52.9483 26.9722C52.2805 24.1991 50.6445 22.4002 48.183 21.3575C46.7722 20.7599 45.0903 20.4106 42.5898 20.2363C43.8483 21.3087 44.5782 22.5095 45.0927 23.6166C45.5436 24.587 45.829 25.4854 45.9919 26.6612C47.1289 26.6196 47.1914 27.1832 47.2045 28.1429C47.2177 29.116 47.1801 30.4964 47.1177 31.5002C47.0579 32.4614 46.9753 33.0773 45.8031 32.8532C45.4438 34.4525 44.7924 35.6956 44.2217 36.5718C44.0223 36.8779 43.8328 37.1392 43.6553 37.3635C47.6722 38.5395 51.0825 40.3606 52.7964 42.5457C53.0085 42.816 53.1945 43.0919 53.3567 43.3799Z" fill="url(#paint4_linear_441_2)" stroke="white" stroke-width="0.7"/>
<path d="M17.4726 43.3799C17.4883 33.152 17.2438 29.6185 17.8811 26.9722C18.5488 24.1991 20.1849 22.4002 22.6464 21.3575C24.0572 20.7599 25.7391 20.4106 28.2396 20.2363C26.981 21.3087 26.2512 22.5095 25.7367 23.6166C25.2858 24.587 25.0004 25.4854 24.8375 26.6612C23.7005 26.6196 23.638 27.1832 23.6249 28.1429C23.6116 29.116 23.6492 30.4964 23.7117 31.5002C23.7715 32.4614 23.8541 33.0773 25.0263 32.8532C25.3856 34.4525 26.037 35.6956 26.6077 36.5718C26.8071 36.8779 26.9966 37.1392 27.1741 37.3635C23.1572 38.5395 19.7469 40.3606 18.033 42.5457C17.8209 42.816 17.6349 43.0919 17.4726 43.3799Z" fill="url(#paint5_linear_441_2)" stroke="white" stroke-width="0.7"/>
<defs>
<filter id="filter0_f_441_2" x="14.3383" y="15.9961" width="42.1527" height="39.3613" filterUnits="userSpaceOnUse" color-interpolation-filters="sRGB">
<feFlood flood-opacity="0" result="BackgroundImageFix"/>
<feBlend mode="normal" in="SourceGraphic" in2="BackgroundImageFix" result="shape"/>
<feGaussianBlur stdDeviation="0.5" result="effect1_foregroundBlur_441_2"/>
</filter>
<linearGradient id="paint0_linear_441_2" x1="35.4147" y1="17.9961" x2="35.4147" y2="42.3394" gradientUnits="userSpaceOnUse">
<stop stop-color="#37366A"/>
<stop offset="1" stop-color="#9494B7"/>
</linearGradient>
<linearGradient id="paint1_linear_441_2" x1="35.4104" y1="23.0391" x2="35.4104" y2="38.8555" gradientUnits="userSpaceOnUse">
<stop offset="0.302083" stop-color="#09060C"/>
<stop offset="0.479167" stop-color="#262543"/>
<stop offset="0.729167" stop-color="#908FA8"/>
<stop offset="1" stop-color="#DEDEF2"/>
</linearGradient>
<linearGradient id="paint2_linear_441_2" x1="35.4147" y1="37.3633" x2="35.4147" y2="53.3563" gradientUnits="userSpaceOnUse">
<stop stop-color="#5D5C7B"/>
<stop offset="1" stop-color="#C8C8E4"/>
</linearGradient>
<linearGradient id="paint3_linear_441_2" x1="35.4147" y1="46.3887" x2="35.4147" y2="53.3551" gradientUnits="userSpaceOnUse">
<stop stop-color="#808DAD"/>
<stop offset="1" stop-color="#37366A"/>
</linearGradient>
<linearGradient id="paint4_linear_441_2" x1="47.9899" y1="20.2363" x2="47.9899" y2="43.3799" gradientUnits="userSpaceOnUse">
<stop stop-color="#2A427F"/>
<stop offset="1" stop-color="#2A427F" stop-opacity="0"/>
</linearGradient>
<linearGradient id="paint5_linear_441_2" x1="22.8395" y1="20.2363" x2="22.8395" y2="43.3799" gradientUnits="userSpaceOnUse">
<stop stop-color="#2A427F"/>
<stop offset="1" stop-color="#2A427F" stop-opacity="0"/>
</linearGradient>
</defs>
</svg>
