<svg width="70" height="70" viewBox="0 0 70 70" fill="none" xmlns="http://www.w3.org/2000/svg">
<g clip-path="url(#clip0_456_8)">
<g filter="url(#filter0_f_456_8)">
<path fill-rule="evenodd" clip-rule="evenodd" d="M51.6816 38.4643H25.2467L25.9259 42.7111C26.7195 42.7443 28.0795 42.7842 30.28 42.8046C34.4379 42.843 41.6841 42.8583 54.4535 42.8583V47.8964C40.5617 47.8964 33.2081 47.8786 29.1914 47.8317C27.183 47.8082 26.015 47.7788 25.2234 47.7349C24.8276 47.713 24.5219 47.6879 24.2335 47.649C23.9451 47.6102 23.6534 47.547 23.4505 47.49C23.2477 47.433 22.9666 47.3465 22.6291 47.1695C22.2917 46.9924 21.9129 46.7103 21.6235 46.3871C21.0447 45.7408 20.8418 45.1193 20.6861 44.5841C20.4521 43.7799 20.295 42.9086 20.0487 41.5422C19.9671 41.0901 19.8759 40.5837 19.7688 40.0077C19.6229 39.223 19.4602 38.359 19.287 37.4387L19.2867 37.4374L19.2866 37.4371L19.2866 37.437C18.4321 32.8987 17.32 26.9924 16.6952 22.4774C16.6732 22.3189 16.6519 22.162 16.6308 22.0069C16.502 21.0606 16.3825 20.1824 16.1921 19.3976C15.5221 16.6357 13.9743 15.0306 9.70469 15.1719L9.69238 12.0672C11.9157 11.942 14.1559 12.0975 15.4817 12.7361C18.1333 14.0132 18.7774 15.852 19.1789 17.2806C19.2758 17.6253 19.3585 17.9461 19.4539 18.4951H55.7736C57.1831 18.4607 58.7223 19.2618 59.4981 20.4336C60.3307 21.5661 60.548 23.2814 60.0238 24.5842L55.9318 35.525C55.6409 36.3299 55.0442 37.1214 54.2693 37.6573C53.4943 38.1933 52.541 38.4737 51.6816 38.4643ZM54.1418 24.1367H22.5756C23.0575 26.8616 23.6399 29.9683 24.1795 32.8205H50.894L54.1418 24.1367ZM48.0654 58.5038C48.9897 58.1296 49.9073 57.2376 50.3327 56.1541C50.7581 55.0706 50.6913 53.7956 50.2668 52.8967C49.8908 51.9766 48.9946 51.0633 47.9061 50.6399C46.8176 50.2164 45.5367 50.283 44.6336 50.7055C43.7093 51.0797 42.7917 51.9718 42.3663 53.0553C41.9409 54.1387 42.0077 55.4137 42.4323 56.3126C42.8082 57.2327 43.7044 58.1461 44.7929 58.5695C45.8814 58.9929 47.1623 58.9264 48.0654 58.5038ZM32.5227 56.1951C32.0973 57.2786 31.1797 58.1706 30.2553 58.5448C29.3522 58.9674 28.0714 59.0339 26.9828 58.6105C25.8943 58.1871 24.9981 57.2737 24.6222 56.3536C24.1977 55.4547 24.1308 54.1798 24.5562 53.0963C24.9816 52.0128 25.8992 51.1207 26.8236 50.7465C27.7267 50.324 29.0075 50.2575 30.0961 50.6809C31.1846 51.1043 32.0808 52.0176 32.4567 52.9377C32.8812 53.8367 32.9481 55.1116 32.5227 56.1951Z" fill="#B3CAF5"/>
<path d="M25.2467 38.4643V34.4643H20.556L21.2969 39.096L25.2467 38.4643ZM51.6816 38.4643L51.7256 34.4645L51.7036 34.4643H51.6816V38.4643ZM25.9259 42.7111L21.9761 43.3428L22.4924 46.5709L25.7586 46.7076L25.9259 42.7111ZM30.28 42.8046L30.243 46.8044L30.243 46.8044L30.28 42.8046ZM54.4535 42.8583H58.4535V38.8583H54.4535V42.8583ZM54.4535 47.8964V51.8964H58.4535V47.8964H54.4535ZM29.1914 47.8317L29.2382 43.8319L29.2381 43.8319L29.1914 47.8317ZM25.2234 47.7349L25.0023 51.7288L25.0024 51.7288L25.2234 47.7349ZM24.2335 47.649L23.6998 51.6133L23.6998 51.6133L24.2335 47.649ZM23.4505 47.49L22.3688 51.341L22.3689 51.341L23.4505 47.49ZM22.6291 47.1695L24.4878 43.6275L24.4877 43.6275L22.6291 47.1695ZM21.6235 46.3871L24.6033 43.7186L24.6032 43.7185L21.6235 46.3871ZM20.6861 44.5841L24.5268 43.4666L24.5268 43.4666L20.6861 44.5841ZM20.0487 41.5422L16.1121 42.2519L16.1121 42.2519L20.0487 41.5422ZM19.7688 40.0077L23.7014 39.2766L23.7014 39.2766L19.7688 40.0077ZM19.287 37.4387L23.2179 36.6986L23.2177 36.6974L19.287 37.4387ZM19.2867 37.4374L23.2174 36.6961L23.2156 36.6863L19.2867 37.4374ZM19.2866 37.4371L23.2155 36.6859L23.2131 36.6736L19.2866 37.4371ZM19.2866 37.437L15.3557 38.1771L15.3579 38.1888L15.3602 38.2004L19.2866 37.437ZM16.6952 22.4774L20.6574 21.9291L20.6574 21.9291L16.6952 22.4774ZM16.6308 22.0069L12.6673 22.5463L12.6673 22.5463L16.6308 22.0069ZM16.1921 19.3976L20.0794 18.4546L20.0794 18.4546L16.1921 19.3976ZM9.70469 15.1719L5.70473 15.1878L5.72106 19.3061L9.83709 19.1698L9.70469 15.1719ZM9.69238 12.0672L9.46746 8.07355L5.67736 8.28701L5.69241 12.0831L9.69238 12.0672ZM15.4817 12.7361L13.746 16.3399L13.746 16.3399L15.4817 12.7361ZM19.1789 17.2806L23.0297 16.1983L23.0297 16.1983L19.1789 17.2806ZM19.4539 18.4951L15.5129 19.1796L16.0888 22.4951H19.4539V18.4951ZM55.7736 18.4951V22.4951H55.8225L55.8714 22.4939L55.7736 18.4951ZM59.4981 20.4336L56.1628 22.6417L56.2171 22.7237L56.2753 22.8029L59.4981 20.4336ZM60.0238 24.5842L56.3129 23.0911L56.2945 23.1368L56.2773 23.1829L60.0238 24.5842ZM55.9318 35.525L52.1852 34.1238L52.1775 34.1445L52.17 34.1654L55.9318 35.525ZM54.2693 37.6573L56.5444 40.9473L56.5445 40.9472L54.2693 37.6573ZM22.5756 24.1367V20.1367H17.806L18.6367 24.8333L22.5756 24.1367ZM54.1418 24.1367L57.8883 25.538L59.9084 20.1367H54.1418V24.1367ZM24.1795 32.8205L20.2493 33.5641L20.8654 36.8205H24.1795V32.8205ZM50.894 32.8205V36.8205H53.6685L54.6405 34.2217L50.894 32.8205ZM50.3327 56.1541L46.6094 54.6923L46.6094 54.6923L50.3327 56.1541ZM48.0654 58.5038L46.5644 54.7961L46.4661 54.8359L46.3701 54.8808L48.0654 58.5038ZM50.2668 52.8967L46.5639 54.4097L46.6043 54.5084L46.6498 54.6049L50.2668 52.8967ZM47.9061 50.6399L49.3562 46.912L49.3562 46.9119L47.9061 50.6399ZM44.6336 50.7055L46.1346 54.4132L46.2329 54.3734L46.3289 54.3285L44.6336 50.7055ZM42.4323 56.3126L46.1351 54.7996L46.0947 54.7009L46.0492 54.6044L42.4323 56.3126ZM44.7929 58.5695L46.243 54.8416L46.243 54.8416L44.7929 58.5695ZM30.2553 58.5448L28.7543 54.8371L28.6561 54.8769L28.5601 54.9218L30.2553 58.5448ZM32.5227 56.1951L36.246 57.6569L36.246 57.6569L32.5227 56.1951ZM26.9828 58.6105L28.433 54.8826L28.4329 54.8826L26.9828 58.6105ZM24.6222 56.3536L28.325 54.8406L28.2847 54.7419L28.2391 54.6454L24.6222 56.3536ZM24.5562 53.0963L28.2796 54.5581L28.2796 54.558L24.5562 53.0963ZM26.8236 50.7465L28.3245 54.4543L28.4228 54.4145L28.5189 54.3695L26.8236 50.7465ZM30.0961 50.6809L31.5462 46.953L31.5461 46.953L30.0961 50.6809ZM32.4567 52.9377L28.7539 54.4507L28.7942 54.5494L28.8398 54.6459L32.4567 52.9377ZM25.2467 42.4643H51.6816V34.4643H25.2467V42.4643ZM29.8757 42.0793L29.1965 37.8325L21.2969 39.096L21.9761 43.3428L29.8757 42.0793ZM30.317 38.8047C28.1474 38.7847 26.8325 38.7455 26.0932 38.7146L25.7586 46.7076C26.6066 46.7431 28.0116 46.7838 30.243 46.8044L30.317 38.8047ZM54.4535 38.8583C41.6801 38.8583 34.453 38.843 30.317 38.8047L30.243 46.8044C34.4228 46.843 41.688 46.8583 54.4535 46.8583V38.8583ZM58.4535 47.8964V42.8583H50.4535V47.8964H58.4535ZM29.1447 51.8314C33.1896 51.8787 40.5687 51.8964 54.4535 51.8964V43.8964C40.5546 43.8964 33.2266 43.8785 29.2382 43.8319L29.1447 51.8314ZM25.0024 51.7288C25.8898 51.7779 27.1355 51.8079 29.1447 51.8314L29.2381 43.8319C27.2306 43.8085 26.1402 43.7796 25.4444 43.7411L25.0024 51.7288ZM23.6998 51.6133C24.1343 51.6718 24.5557 51.7041 25.0023 51.7288L25.4445 43.7411C25.0995 43.722 24.9095 43.704 24.7672 43.6848L23.6998 51.6133ZM22.3689 51.341C22.7509 51.4483 23.2257 51.5495 23.6998 51.6133L24.7672 43.6848C24.7268 43.6794 24.6746 43.6705 24.62 43.6592C24.5636 43.6476 24.5316 43.6389 24.5321 43.639L22.3689 51.341ZM20.7704 50.7114C21.4594 51.073 22.0404 51.2487 22.3688 51.341L24.5323 43.6391C24.5036 43.631 24.4901 43.6269 24.4825 43.6245C24.4755 43.6224 24.474 43.6217 24.4757 43.6224C24.4775 43.623 24.4804 43.6241 24.4835 43.6255C24.4867 43.6269 24.4882 43.6277 24.4878 43.6275L20.7704 50.7114ZM18.6438 49.0556C19.2742 49.7596 20.0411 50.3287 20.7705 50.7114L24.4877 43.6275C24.5162 43.6424 24.5321 43.6524 24.5377 43.6561C24.5438 43.66 24.5461 43.6618 24.5466 43.6621C24.5471 43.6625 24.5506 43.6652 24.5577 43.6717C24.5645 43.6779 24.5803 43.6929 24.6033 43.7186L18.6438 49.0556ZM16.8454 45.7016C17.0507 46.4074 17.4568 47.7303 18.6438 49.0557L24.6032 43.7185C24.595 43.7093 24.5971 43.7105 24.604 43.7211C24.607 43.7256 24.6098 43.7303 24.6122 43.7347C24.6133 43.7367 24.6142 43.7384 24.6149 43.7397C24.6155 43.741 24.6158 43.7416 24.6158 43.7415C24.6124 43.7343 24.5929 43.6937 24.5268 43.4666L16.8454 45.7016ZM16.1121 42.2519C16.3461 43.5494 16.5401 44.6524 16.8454 45.7016L24.5268 43.4666C24.3641 42.9073 24.244 42.2678 23.9852 40.8325L16.1121 42.2519ZM15.8361 40.7387C15.941 41.3028 16.0305 41.7994 16.1121 42.2519L23.9852 40.8325C23.9038 40.3807 23.8107 39.8646 23.7014 39.2766L15.8361 40.7387ZM15.356 38.1789C15.5295 39.1003 15.6913 39.9595 15.8361 40.7387L23.7014 39.2766C23.5545 38.4865 23.3909 37.6177 23.2179 36.6986L15.356 38.1789ZM15.356 38.1788L15.3562 38.1801L23.2177 36.6974L23.2174 36.6961L15.356 38.1788ZM15.3578 38.1882L15.3579 38.1885L23.2156 36.6863L23.2155 36.686L15.3578 38.1882ZM15.3602 38.2004L15.3602 38.2005L23.2131 36.6736L23.2131 36.6735L15.3602 38.2004ZM12.7329 23.0258C13.3739 27.6572 14.5068 33.6685 15.3557 38.1771L23.2175 36.6968C22.3575 32.1289 21.2661 26.3275 20.6574 21.9291L12.7329 23.0258ZM12.6673 22.5463C12.6883 22.7006 12.7103 22.862 12.7329 23.0258L20.6574 21.9291C20.6362 21.7757 20.6154 21.6233 20.5943 21.4676L12.6673 22.5463ZM12.3049 20.3406C12.4373 20.8867 12.5315 21.5479 12.6673 22.5463L20.5943 21.4676C20.4726 20.5733 20.3277 19.4781 20.0794 18.4546L12.3049 20.3406ZM9.83709 19.1698C10.6593 19.1425 11.1961 19.2059 11.5294 19.2825C11.8459 19.3553 11.9469 19.432 11.949 19.4335C11.9544 19.4374 11.9572 19.4398 11.9627 19.4461C11.9693 19.4536 11.9901 19.4787 12.0215 19.5338C12.0895 19.653 12.1965 19.8938 12.3049 20.3406L20.0794 18.4546C19.6267 16.5884 18.7202 14.4627 16.6475 12.9586C14.6318 11.4959 12.152 11.0887 9.5723 11.1741L9.83709 19.1698ZM5.69241 12.0831L5.70473 15.1878L13.7047 15.1561L13.6924 12.0514L5.69241 12.0831ZM17.2174 9.13228C15.9555 8.52452 14.5408 8.26023 13.3321 8.13614C12.067 8.00626 10.7321 8.00233 9.46746 8.07355L9.91731 16.0609C10.876 16.0069 11.7728 16.0181 12.5151 16.0943C12.8832 16.1321 13.1797 16.1825 13.4061 16.2363C13.5173 16.2627 13.6015 16.2876 13.6616 16.3079C13.7222 16.3284 13.748 16.3409 13.746 16.3399L17.2174 9.13228ZM23.0297 16.1983C22.8021 15.3883 22.402 14.0553 21.4817 12.7021C20.5255 11.2962 19.1481 10.0621 17.2174 9.13228L13.746 16.3399C14.467 16.6871 14.7374 17.0111 14.8665 17.201C15.0316 17.4436 15.1543 17.7443 15.3281 18.3629L23.0297 16.1983ZM23.3949 17.8106C23.2711 17.098 23.1543 16.6416 23.0297 16.1983L15.3281 18.3629C15.3973 18.6089 15.4459 18.7941 15.5129 19.1796L23.3949 17.8106ZM55.7736 14.4951H19.4539V22.4951H55.7736V14.4951ZM62.8334 18.2255C61.2947 15.9013 58.4562 14.4284 55.6759 14.4963L55.8714 22.4939C55.8308 22.4949 55.8318 22.4895 55.8718 22.4995C55.9111 22.5093 55.9661 22.5286 56.0268 22.5602C56.0874 22.5918 56.134 22.6253 56.1632 22.6507C56.1931 22.6767 56.1872 22.6786 56.1628 22.6417L62.8334 18.2255ZM63.7347 26.0773C64.7765 23.4878 64.373 20.3115 62.7209 18.0643L56.2753 22.8029C56.2492 22.7674 56.2525 22.7617 56.2657 22.7966C56.2787 22.8308 56.2933 22.8833 56.3014 22.9476C56.3096 23.012 56.3085 23.0662 56.3045 23.102C56.3004 23.1386 56.296 23.1331 56.3129 23.0911L63.7347 26.0773ZM59.6783 36.9263L63.7703 25.9854L56.2773 23.1829L52.1852 34.1238L59.6783 36.9263ZM56.5445 40.9472C57.9964 39.9431 59.1169 38.4802 59.6936 36.8847L52.17 34.1654C52.1757 34.1495 52.1637 34.1857 52.1168 34.2463C52.0714 34.3051 52.0242 34.3466 51.9941 34.3674L56.5445 40.9472ZM51.6377 42.464C53.33 42.4826 55.0927 41.9512 56.5444 40.9473L51.9941 34.3674C51.9639 34.3883 51.907 34.4188 51.8329 34.4415C51.7567 34.4649 51.7141 34.4644 51.7256 34.4645L51.6377 42.464ZM22.5756 28.1367H54.1418V20.1367H22.5756V28.1367ZM28.1098 32.0769C27.5704 29.2257 26.9918 26.1395 26.5144 23.4401L18.6367 24.8333C19.1231 27.5838 19.7094 30.7109 20.2493 33.5641L28.1098 32.0769ZM50.894 28.8205H24.1795V36.8205H50.894V28.8205ZM50.3953 22.7355L47.1474 31.4192L54.6405 34.2217L57.8883 25.538L50.3953 22.7355ZM46.6094 54.6923C46.613 54.6831 46.6102 54.6926 46.5948 54.7159C46.5794 54.7392 46.558 54.766 46.5328 54.7916C46.5073 54.8176 46.4881 54.832 46.4827 54.8357C46.476 54.8403 46.5005 54.822 46.5644 54.7961L49.5663 62.2115C51.5274 61.4176 53.2371 59.7019 54.0561 57.6159L46.6094 54.6923ZM46.6498 54.6049C46.6339 54.5711 46.6247 54.5465 46.62 54.5325C46.6152 54.5184 46.6138 54.5119 46.6141 54.513C46.615 54.5172 46.6192 54.5387 46.6202 54.5733C46.6212 54.6075 46.6187 54.6402 46.6144 54.6667C46.61 54.6932 46.6058 54.7015 46.6094 54.6923L54.0561 57.6159C54.8752 55.5294 54.7895 53.1066 53.8837 51.1885L46.6498 54.6049ZM46.456 54.3677C46.4497 54.3653 46.4611 54.3691 46.4857 54.3853C46.5103 54.4014 46.5378 54.4232 46.5636 54.4483C46.5897 54.4738 46.6037 54.4925 46.6068 54.4969C46.6107 54.5025 46.5911 54.4762 46.5639 54.4097L53.9696 51.3838C53.1675 49.4208 51.4405 47.7227 49.3562 46.912L46.456 54.3677ZM46.3289 54.3285C46.2664 54.3578 46.2366 54.3631 46.2456 54.3611C46.2531 54.3594 46.2782 54.3549 46.3164 54.3538C46.3542 54.3527 46.3906 54.3553 46.4207 54.3602C46.4508 54.3651 46.4624 54.3702 46.456 54.3678L49.3562 46.9119C47.2724 46.1014 44.8541 46.1861 42.9383 47.0825L46.3289 54.3285ZM46.0896 54.5171C46.086 54.5262 46.0888 54.5168 46.1042 54.4935C46.1196 54.4702 46.141 54.4434 46.1662 54.4177C46.1917 54.3918 46.2109 54.3774 46.2163 54.3736C46.2231 54.369 46.1985 54.3874 46.1346 54.4132L43.1327 46.9978C41.1716 47.7917 39.4619 49.5074 38.643 51.5934L46.0896 54.5171ZM46.0492 54.6044C46.0652 54.6383 46.0743 54.6629 46.079 54.6768C46.0838 54.6909 46.0852 54.6975 46.0849 54.6963C46.084 54.6921 46.0798 54.6706 46.0788 54.636C46.0778 54.6019 46.0803 54.5691 46.0846 54.5426C46.089 54.5161 46.0932 54.5079 46.0896 54.5171L38.643 51.5934C37.8238 53.68 37.9095 56.1028 38.8153 58.0208L46.0492 54.6044ZM46.243 54.8416C46.2493 54.844 46.2379 54.8402 46.2133 54.824C46.1887 54.8079 46.1612 54.7861 46.1354 54.761C46.1093 54.7356 46.0953 54.7168 46.0922 54.7125C46.0883 54.7068 46.1079 54.7331 46.1351 54.7996L38.7294 57.8256C39.5315 59.7886 41.2585 61.4866 43.3428 62.2974L46.243 54.8416ZM46.3701 54.8808C46.4327 54.8515 46.4624 54.8462 46.4534 54.8483C46.4459 54.8499 46.4209 54.8545 46.3826 54.8556C46.3448 54.8567 46.3084 54.854 46.2784 54.8491C46.2483 54.8442 46.2367 54.8391 46.243 54.8416L43.3428 62.2974C45.4266 63.1079 47.8449 63.0232 49.7606 62.1268L46.3701 54.8808ZM31.7563 62.2525C33.7174 61.4586 35.427 59.7429 36.246 57.6569L28.7994 54.7333C28.803 54.7241 28.8002 54.7336 28.7848 54.7569C28.7693 54.7802 28.748 54.807 28.7228 54.8326C28.6973 54.8586 28.678 54.873 28.6726 54.8767C28.6659 54.8813 28.6904 54.863 28.7543 54.8371L31.7563 62.2525ZM25.5327 62.3384C27.6166 63.149 30.0349 63.0642 31.9506 62.1678L28.5601 54.9218C28.6227 54.8926 28.6524 54.8873 28.6433 54.8893C28.6359 54.8909 28.6108 54.8955 28.5726 54.8966C28.5348 54.8977 28.4984 54.895 28.4683 54.8901C28.4382 54.8852 28.4266 54.8801 28.433 54.8826L25.5327 62.3384ZM20.9194 57.8666C21.7215 59.8296 23.4485 61.5276 25.5328 62.3384L28.4329 54.8826C28.4393 54.8851 28.4278 54.8812 28.4032 54.8651C28.3787 54.8489 28.3512 54.8272 28.3254 54.802C28.2992 54.7766 28.2852 54.7578 28.2822 54.7535C28.2782 54.7478 28.2978 54.7741 28.325 54.8406L20.9194 57.8666ZM20.8329 51.6345C20.0137 53.721 20.0994 56.1438 21.0053 58.0618L28.2391 54.6454C28.2551 54.6793 28.2642 54.7039 28.269 54.7178C28.2737 54.7319 28.2751 54.7385 28.2749 54.7373C28.2739 54.7332 28.2698 54.7116 28.2688 54.677C28.2678 54.6429 28.2702 54.6101 28.2746 54.5836C28.2789 54.5572 28.2832 54.5489 28.2796 54.5581L20.8329 51.6345ZM25.3226 47.0388C23.3615 47.8327 21.6519 49.5484 20.8329 51.6345L28.2796 54.558C28.276 54.5672 28.2787 54.5578 28.2941 54.5345C28.3096 54.5112 28.3309 54.4844 28.3561 54.4587C28.3816 54.4328 28.4008 54.4184 28.4063 54.4147C28.413 54.41 28.3885 54.4284 28.3245 54.4543L25.3226 47.0388ZM31.5461 46.953C29.4624 46.1424 27.0441 46.2271 25.1283 47.1236L28.5189 54.3695C28.4563 54.3988 28.4266 54.4041 28.4356 54.4021C28.443 54.4004 28.4681 54.3959 28.5063 54.3948C28.5441 54.3937 28.5805 54.3963 28.6106 54.4012C28.6407 54.4061 28.6523 54.4112 28.646 54.4088L31.5461 46.953ZM36.1595 51.4247C35.3574 49.4617 33.6304 47.7637 31.5462 46.953L28.646 54.4088C28.6396 54.4063 28.6511 54.4102 28.6757 54.4263C28.7002 54.4424 28.7277 54.4642 28.7535 54.4893C28.7797 54.5148 28.7937 54.5335 28.7967 54.5379C28.8007 54.5436 28.7811 54.5172 28.7539 54.4507L36.1595 51.4247ZM36.246 57.6569C37.0652 55.5704 36.9795 53.1476 36.0736 51.2296L28.8398 54.6459C28.8238 54.612 28.8147 54.5875 28.8099 54.5735C28.8052 54.5594 28.8038 54.5529 28.804 54.554C28.805 54.5582 28.8091 54.5797 28.8101 54.6143C28.8111 54.6485 28.8087 54.6812 28.8043 54.7077C28.8 54.7342 28.7957 54.7425 28.7994 54.7333L36.246 57.6569Z" fill="#7D97ED"/>
</g>
<g filter="url(#filter1_f_456_8)">
<path fill-rule="evenodd" clip-rule="evenodd" d="M51.6816 38.4643H25.2467L25.9259 42.7111C26.7195 42.7443 28.0795 42.7842 30.28 42.8046C34.4379 42.843 41.6841 42.8583 54.4535 42.8583V47.8964C40.5617 47.8964 33.2081 47.8786 29.1914 47.8317C27.183 47.8082 26.015 47.7788 25.2234 47.7349C24.8276 47.713 24.5219 47.6879 24.2335 47.649C23.9451 47.6102 23.6534 47.547 23.4505 47.49C23.2477 47.433 22.9666 47.3465 22.6291 47.1695C22.2917 46.9924 21.9129 46.7103 21.6235 46.3871C21.0447 45.7408 20.8418 45.1193 20.6861 44.5841C20.4521 43.7799 20.295 42.9086 20.0487 41.5422C19.9671 41.0901 19.8759 40.5837 19.7688 40.0077C19.6229 39.223 19.4602 38.359 19.287 37.4387L19.2867 37.4374L19.2866 37.4371L19.2866 37.437C18.4321 32.8987 17.32 26.9924 16.6952 22.4774C16.6732 22.3189 16.6519 22.162 16.6308 22.0069C16.502 21.0606 16.3825 20.1824 16.1921 19.3976C15.5221 16.6357 13.9743 15.0306 9.70469 15.1719L9.69238 12.0672C11.9157 11.942 14.1559 12.0975 15.4817 12.7361C18.1333 14.0132 18.7774 15.852 19.1789 17.2806C19.2758 17.6253 19.3585 17.9461 19.4539 18.4951H55.7736C57.1831 18.4607 58.7223 19.2618 59.4981 20.4336C60.3307 21.5661 60.548 23.2814 60.0238 24.5842L55.9318 35.525C55.6409 36.3299 55.0442 37.1214 54.2693 37.6573C53.4943 38.1933 52.541 38.4737 51.6816 38.4643ZM54.1418 24.1367H22.5756C23.0575 26.8616 23.6399 29.9683 24.1795 32.8205H50.894L54.1418 24.1367ZM48.0654 58.5038C48.9897 58.1296 49.9073 57.2376 50.3327 56.1541C50.7581 55.0706 50.6913 53.7956 50.2668 52.8967C49.8908 51.9766 48.9946 51.0633 47.9061 50.6399C46.8176 50.2164 45.5367 50.283 44.6336 50.7055C43.7093 51.0797 42.7917 51.9718 42.3663 53.0553C41.9409 54.1387 42.0077 55.4137 42.4323 56.3126C42.8082 57.2327 43.7044 58.1461 44.7929 58.5695C45.8814 58.9929 47.1623 58.9264 48.0654 58.5038ZM32.5227 56.1951C32.0973 57.2786 31.1797 58.1706 30.2553 58.5448C29.3522 58.9674 28.0714 59.0339 26.9828 58.6105C25.8943 58.1871 24.9981 57.2737 24.6222 56.3536C24.1977 55.4547 24.1308 54.1798 24.5562 53.0963C24.9816 52.0128 25.8992 51.1207 26.8236 50.7465C27.7267 50.324 29.0075 50.2575 30.0961 50.6809C31.1846 51.1043 32.0808 52.0176 32.4567 52.9377C32.8812 53.8367 32.9481 55.1116 32.5227 56.1951Z" fill="#99BCFF"/>
<path d="M25.2467 38.4643V37.4643H24.074L24.2592 38.6222L25.2467 38.4643ZM51.6816 38.4643L51.6926 37.4643H51.6816V38.4643ZM25.9259 42.7111L24.9385 42.869L25.0676 43.676L25.8841 43.7102L25.9259 42.7111ZM30.28 42.8046L30.2707 43.8045L30.2707 43.8045L30.28 42.8046ZM54.4535 42.8583H55.4535V41.8583H54.4535V42.8583ZM54.4535 47.8964V48.8964H55.4535V47.8964H54.4535ZM29.1914 47.8317L29.2031 46.8317L29.2031 46.8317L29.1914 47.8317ZM25.2234 47.7349L25.1681 48.7334L25.1682 48.7334L25.2234 47.7349ZM24.2335 47.649L24.1 48.6401L24.1 48.6401L24.2335 47.649ZM23.4505 47.49L23.1801 48.4528L23.1801 48.4528L23.4505 47.49ZM22.6291 47.1695L23.0938 46.284L23.0938 46.284L22.6291 47.1695ZM21.6235 46.3871L22.3685 45.72L22.3685 45.72L21.6235 46.3871ZM20.6861 44.5841L21.6463 44.3047L21.6463 44.3047L20.6861 44.5841ZM20.0487 41.5422L19.0645 41.7196L19.0645 41.7196L20.0487 41.5422ZM19.7688 40.0077L20.7519 39.8249L20.7519 39.8249L19.7688 40.0077ZM19.287 37.4387L20.2697 37.2537L20.2696 37.2534L19.287 37.4387ZM19.2867 37.4374L20.2694 37.2521L20.2689 37.2497L19.2867 37.4374ZM19.2866 37.4371L20.2689 37.2493L20.2683 37.2462L19.2866 37.4371ZM19.2866 37.437L18.3039 37.622L18.305 37.6278L19.2866 37.437ZM16.6952 22.4774L17.6857 22.3404L17.6857 22.3404L16.6952 22.4774ZM16.6308 22.0069L15.6399 22.1418L15.6399 22.1418L16.6308 22.0069ZM16.1921 19.3976L17.1639 19.1619L17.1639 19.1618L16.1921 19.3976ZM9.70469 15.1719L8.7047 15.1759L8.70879 16.2055L9.73779 16.1714L9.70469 15.1719ZM9.69238 12.0672L9.63615 11.0688L8.68863 11.1222L8.69239 12.0712L9.69238 12.0672ZM15.4817 12.7361L15.0478 13.637L15.0478 13.637L15.4817 12.7361ZM19.1789 17.2806L20.1416 17.01L20.1416 17.01L19.1789 17.2806ZM19.4539 18.4951L18.4687 18.6662L18.6126 19.4951H19.4539V18.4951ZM55.7736 18.4951V19.4951H55.7859L55.7981 19.4948L55.7736 18.4951ZM59.4981 20.4336L58.6643 20.9856L58.6778 21.0061L58.6924 21.0259L59.4981 20.4336ZM60.0238 24.5842L59.0961 24.2109L59.0915 24.2223L59.0872 24.2339L60.0238 24.5842ZM55.9318 35.525L54.9951 35.1747L54.9913 35.1851L55.9318 35.525ZM54.2693 37.6573L54.838 38.4798L54.8381 38.4798L54.2693 37.6573ZM22.5756 24.1367V23.1367H21.3832L21.5908 24.3109L22.5756 24.1367ZM54.1418 24.1367L55.0784 24.487L55.5834 23.1367H54.1418V24.1367ZM24.1795 32.8205L23.197 33.0064L23.351 33.8205H24.1795V32.8205ZM50.894 32.8205V33.8205H51.5876L51.8306 33.1708L50.894 32.8205ZM50.3327 56.1541L49.4019 55.7886L49.4019 55.7886L50.3327 56.1541ZM48.0654 58.5038L47.6901 57.5769L47.6656 57.5868L47.6416 57.5981L48.0654 58.5038ZM50.2668 52.8967L49.3411 53.275L49.3511 53.2997L49.3625 53.3238L50.2668 52.8967ZM47.9061 50.6399L48.2686 49.7079L48.2686 49.7079L47.9061 50.6399ZM44.6336 50.7055L45.0089 51.6325L45.0334 51.6225L45.0574 51.6113L44.6336 50.7055ZM42.4323 56.3126L43.358 55.9344L43.3479 55.9097L43.3365 55.8856L42.4323 56.3126ZM44.7929 58.5695L45.1554 57.6375L45.1554 57.6375L44.7929 58.5695ZM30.2553 58.5448L29.8801 57.6179L29.8555 57.6278L29.8315 57.6391L30.2553 58.5448ZM32.5227 56.1951L33.4535 56.5605L33.4535 56.5605L32.5227 56.1951ZM26.9828 58.6105L27.3454 57.6785L27.3454 57.6785L26.9828 58.6105ZM24.6222 56.3536L25.5479 55.9754L25.5378 55.9507L25.5264 55.9266L24.6222 56.3536ZM24.5562 53.0963L25.4871 53.4617L25.4871 53.4617L24.5562 53.0963ZM26.8236 50.7465L27.1988 51.6735L27.2234 51.6635L27.2474 51.6523L26.8236 50.7465ZM30.0961 50.6809L30.4586 49.7489L30.4586 49.7489L30.0961 50.6809ZM32.4567 52.9377L31.531 53.316L31.5411 53.3407L31.5525 53.3648L32.4567 52.9377ZM25.2467 39.4643H51.6816V37.4643H25.2467V39.4643ZM26.9134 42.5531L26.2341 38.3063L24.2592 38.6222L24.9385 42.869L26.9134 42.5531ZM30.2892 41.8046C28.0965 41.7843 26.7478 41.7446 25.9677 41.712L25.8841 43.7102C26.6913 43.744 28.0625 43.7841 30.2707 43.8045L30.2892 41.8046ZM54.4535 41.8583C41.6831 41.8583 34.4417 41.843 30.2892 41.8046L30.2707 43.8045C34.4341 43.843 41.6851 43.8583 54.4535 43.8583V41.8583ZM55.4535 47.8964V42.8583H53.4535V47.8964H55.4535ZM29.1797 48.8316C33.2035 48.8786 40.5634 48.8964 54.4535 48.8964V46.8964C40.5599 46.8964 33.2128 46.8786 29.2031 46.8317L29.1797 48.8316ZM25.1682 48.7334C25.9837 48.7785 27.1712 48.8081 29.1797 48.8316L29.2031 46.8317C27.1949 46.8083 26.0463 46.779 25.2787 46.7365L25.1682 48.7334ZM24.1 48.6401C24.425 48.6838 24.7596 48.7108 25.1681 48.7334L25.2787 46.7365C24.8956 46.7153 24.6188 46.6919 24.3669 46.658L24.1 48.6401ZM23.1801 48.4528C23.4278 48.5223 23.7652 48.595 24.1 48.6401L24.3669 46.658C24.1249 46.6254 23.879 46.5717 23.7209 46.5273L23.1801 48.4528ZM22.1645 48.0549C22.5898 48.2781 22.9459 48.387 23.1801 48.4528L23.721 46.5273C23.5495 46.4791 23.3433 46.4149 23.0938 46.284L22.1645 48.0549ZM20.8786 47.0542C21.2533 47.4726 21.7291 47.8265 22.1645 48.0549L23.0938 46.284C22.8543 46.1583 22.5726 45.9479 22.3685 45.72L20.8786 47.0542ZM19.7259 44.8635C19.8941 45.4413 20.1477 46.2381 20.8786 47.0542L22.3685 45.72C21.9416 45.2434 21.7896 44.7973 21.6463 44.3047L19.7259 44.8635ZM19.0645 41.7196C19.3078 43.0688 19.4741 43.998 19.7259 44.8635L21.6463 44.3047C21.4301 43.5617 21.2823 42.7484 21.0328 41.3648L19.0645 41.7196ZM18.7856 40.1904C18.8921 40.7635 18.983 41.2674 19.0645 41.7196L21.0328 41.3648C20.9513 40.9127 20.8596 40.4039 20.7519 39.8249L18.7856 40.1904ZM18.3042 37.6238C18.4776 38.5443 18.64 39.4071 18.7856 40.1904L20.7519 39.8249C20.6058 39.0389 20.4429 38.1737 20.2697 37.2537L18.3042 37.6238ZM18.304 37.6228L18.3043 37.6241L20.2696 37.2534L20.2694 37.2521L18.304 37.6228ZM18.3044 37.6248L18.3045 37.6252L20.2689 37.2497L20.2688 37.2493L18.3044 37.6248ZM18.305 37.6278L18.305 37.6279L20.2683 37.2462L20.2682 37.2461L18.305 37.6278ZM15.7046 22.6145C16.3335 27.1586 17.4508 33.0912 18.3039 37.622L20.2693 37.2519C19.4134 32.7063 18.3065 26.8262 17.6857 22.3404L15.7046 22.6145ZM15.6399 22.1418C15.661 22.2966 15.6825 22.4546 15.7046 22.6145L17.6857 22.3404C17.664 22.1831 17.6428 22.0273 17.6217 21.8721L15.6399 22.1418ZM15.2203 19.6333C15.3962 20.3585 15.5094 21.1824 15.6399 22.1418L17.6217 21.8721C17.4947 20.9388 17.3688 20.0063 17.1639 19.1619L15.2203 19.6333ZM9.73779 16.1714C11.7614 16.1044 12.9594 16.46 13.711 17.0054C14.4483 17.5405 14.9147 18.3737 15.2203 19.6333L17.1639 19.1618C16.7995 17.6596 16.1571 16.3093 14.8856 15.3867C13.6283 14.4744 11.9176 14.0981 9.6716 14.1725L9.73779 16.1714ZM8.69239 12.0712L8.7047 15.1759L10.7047 15.168L10.6924 12.0633L8.69239 12.0712ZM15.9156 11.8351C15.103 11.4437 14.0807 11.2288 13.0257 11.1205C11.9567 11.0107 10.7861 11.004 9.63615 11.0688L9.74861 13.0656C10.822 13.0052 11.8831 13.0137 12.8215 13.11C13.7739 13.2078 14.5346 13.3899 15.0478 13.637L15.9156 11.8351ZM20.1416 17.01C19.9341 16.2718 19.6381 15.3259 19.001 14.3892C18.355 13.4393 17.3927 12.5465 15.9156 11.8351L15.0478 13.637C16.2224 14.2027 16.9079 14.868 17.3472 15.5139C17.7955 16.173 18.0222 16.8608 18.2162 17.5512L20.1416 17.01ZM20.4392 18.324C20.3367 17.7341 20.2454 17.3793 20.1416 17.01L18.2162 17.5512C18.3062 17.8712 18.3804 18.1581 18.4687 18.6662L20.4392 18.324ZM55.7736 17.4951H19.4539V19.4951H55.7736V17.4951ZM60.3319 19.8816C59.3654 18.4217 57.5014 17.4526 55.7492 17.4954L55.7981 19.4948C56.8648 19.4687 58.0792 20.1019 58.6643 20.9856L60.3319 19.8816ZM60.9515 24.9575C61.6051 23.333 61.3413 21.2525 60.3038 19.8413L58.6924 21.0259C59.3201 21.8798 59.4908 23.2298 59.0961 24.2109L60.9515 24.9575ZM56.8684 35.8753L60.9604 24.9345L59.0872 24.2339L54.9951 35.1747L56.8684 35.8753ZM54.8381 38.4798C55.7823 37.8268 56.5099 36.8675 56.8722 35.865L54.9913 35.1851C54.7718 35.7924 54.3062 36.4159 53.7005 36.8349L54.8381 38.4798ZM51.6707 39.4642C52.7382 39.4759 53.8939 39.1327 54.838 38.4798L53.7005 36.8348C53.0947 37.2538 52.3437 37.4715 51.6926 37.4643L51.6707 39.4642ZM22.5756 25.1367H54.1418V23.1367H22.5756V25.1367ZM25.1621 32.6346C24.6225 29.7826 24.0411 26.6811 23.5603 23.9626L21.5908 24.3109C22.0739 27.0422 22.6573 30.1539 23.197 33.0064L25.1621 32.6346ZM50.894 31.8205H24.1795V33.8205H50.894V31.8205ZM53.2052 23.7864L49.9573 32.4702L51.8306 33.1708L55.0784 24.487L53.2052 23.7864ZM49.4019 55.7886C49.0749 56.6215 48.3553 57.3076 47.6901 57.5769L48.4406 59.4307C49.6242 58.9516 50.7398 57.8537 51.2636 56.5195L49.4019 55.7886ZM49.3625 53.3238C49.6667 53.9679 49.7288 54.9559 49.4019 55.7886L51.2636 56.5195C51.7874 55.1853 51.7158 53.6234 51.171 52.4697L49.3625 53.3238ZM47.5436 51.5718C48.3832 51.8984 49.0716 52.6156 49.3411 53.275L51.1925 52.5185C50.71 51.3377 49.6061 50.2281 48.2686 49.7079L47.5436 51.5718ZM45.0574 51.6113C45.7074 51.3072 46.7039 51.2452 47.5436 51.5718L48.2686 49.7079C46.9313 49.1877 45.3661 49.2587 44.2098 49.7998L45.0574 51.6113ZM43.2971 53.4207C43.6241 52.5878 44.3437 51.9017 45.0089 51.6325L44.2584 49.7786C43.0748 50.2577 41.9592 51.3557 41.4355 52.6898L43.2971 53.4207ZM43.3365 55.8856C43.0323 55.2414 42.9702 54.2534 43.2971 53.4207L41.4355 52.6898C40.9116 54.024 40.9832 55.586 41.528 56.7397L43.3365 55.8856ZM45.1554 57.6375C44.3158 57.3109 43.6274 56.5937 43.358 55.9344L41.5065 56.6909C41.989 57.8717 43.0929 58.9812 44.4304 59.5015L45.1554 57.6375ZM47.6416 57.5981C46.9916 57.9022 45.9951 57.9641 45.1554 57.6375L44.4304 59.5014C45.7677 60.0217 47.333 59.9506 48.4892 59.4096L47.6416 57.5981ZM30.6306 59.4718C31.8141 58.9926 32.9297 57.8947 33.4535 56.5605L31.5918 55.8296C31.2649 56.6625 30.5453 57.3486 29.8801 57.6179L30.6306 59.4718ZM26.6203 59.5425C27.9577 60.0627 29.5229 59.9916 30.6791 59.4506L29.8315 57.6391C29.1816 57.9432 28.1851 58.0051 27.3454 57.6785L26.6203 59.5425ZM23.6965 56.7319C24.179 57.9127 25.2829 59.0222 26.6203 59.5425L27.3454 57.6785C26.5058 57.3519 25.8173 56.6347 25.5479 55.9754L23.6965 56.7319ZM23.6254 52.7308C23.1016 54.0651 23.1731 55.627 23.718 56.7807L25.5264 55.9266C25.2222 55.2825 25.1601 54.2945 25.4871 53.4617L23.6254 52.7308ZM26.4483 49.8196C25.2648 50.2987 24.1492 51.3967 23.6254 52.7308L25.4871 53.4617C25.814 52.6289 26.5336 51.9428 27.1988 51.6735L26.4483 49.8196ZM30.4586 49.7489C29.1212 49.2287 27.556 49.2998 26.3997 49.8408L27.2474 51.6523C27.8973 51.3482 28.8938 51.2862 29.7335 51.6128L30.4586 49.7489ZM33.3824 52.5595C32.8999 51.3787 31.796 50.2691 30.4586 49.7489L29.7335 51.6128C30.5731 51.9394 31.2616 52.6566 31.531 53.316L33.3824 52.5595ZM33.4535 56.5605C33.9773 55.2263 33.9058 53.6644 33.3609 52.5107L31.5525 53.3648C31.8567 54.0089 31.9188 54.9969 31.5918 55.8296L33.4535 56.5605Z" fill="#99BCFF"/>
</g>
<path fill-rule="evenodd" clip-rule="evenodd" d="M51.6816 38.4643H25.2467L25.9259 42.7111C26.7195 42.7443 28.0795 42.7842 30.28 42.8046C34.4379 42.843 41.6841 42.8583 54.4535 42.8583V47.8964C40.5617 47.8964 33.2081 47.8786 29.1914 47.8317C27.183 47.8082 26.015 47.7788 25.2234 47.7349C24.8276 47.713 24.5219 47.6879 24.2335 47.649C23.9451 47.6102 23.6534 47.547 23.4505 47.49C23.2477 47.433 22.9666 47.3465 22.6291 47.1695C22.2917 46.9924 21.9129 46.7103 21.6235 46.3871C21.0447 45.7408 20.8418 45.1193 20.6861 44.5841C20.4521 43.7799 20.295 42.9086 20.0487 41.5422C19.9671 41.0901 19.8759 40.5837 19.7688 40.0077C19.6229 39.223 19.4602 38.359 19.287 37.4387L19.2867 37.4374L19.2866 37.4371L19.2866 37.437C18.4321 32.8987 17.32 26.9924 16.6952 22.4774C16.6732 22.3189 16.6519 22.162 16.6308 22.0069C16.502 21.0606 16.3825 20.1824 16.1921 19.3976C15.5221 16.6357 13.9743 15.0306 9.70469 15.1719L9.69238 12.0672C11.9157 11.942 14.1559 12.0975 15.4817 12.7361C18.1333 14.0132 18.7774 15.852 19.1789 17.2806C19.2758 17.6253 19.3585 17.9461 19.4539 18.4951H55.7736C57.1831 18.4607 58.7223 19.2618 59.4981 20.4336C60.3307 21.5661 60.548 23.2814 60.0238 24.5842L55.9318 35.525C55.6409 36.3299 55.0442 37.1214 54.2693 37.6573C53.4943 38.1933 52.541 38.4737 51.6816 38.4643ZM54.1418 24.1367H22.5756C23.0575 26.8616 23.6399 29.9683 24.1795 32.8205H50.894L54.1418 24.1367ZM48.0654 58.5038C48.9897 58.1296 49.9073 57.2376 50.3327 56.1541C50.7581 55.0706 50.6913 53.7956 50.2668 52.8967C49.8908 51.9766 48.9946 51.0633 47.9061 50.6399C46.8176 50.2164 45.5367 50.283 44.6336 50.7055C43.7093 51.0797 42.7917 51.9718 42.3663 53.0553C41.9409 54.1387 42.0077 55.4137 42.4323 56.3126C42.8082 57.2327 43.7044 58.1461 44.7929 58.5695C45.8814 58.9929 47.1623 58.9264 48.0654 58.5038ZM32.5227 56.1951C32.0973 57.2786 31.1797 58.1706 30.2553 58.5448C29.3522 58.9674 28.0714 59.0339 26.9828 58.6105C25.8943 58.1871 24.9981 57.2737 24.6222 56.3536C24.1977 55.4547 24.1308 54.1798 24.5562 53.0963C24.9816 52.0128 25.8992 51.1207 26.8236 50.7465C27.7267 50.324 29.0075 50.2575 30.0961 50.6809C31.1846 51.1043 32.0808 52.0176 32.4567 52.9377C32.8812 53.8367 32.9481 55.1116 32.5227 56.1951Z" fill="#B3CAF5"/>
</g>
<defs>
<filter id="filter0_f_456_8" x="-1.32263" y="1.02734" width="72.6301" height="68.8691" filterUnits="userSpaceOnUse" color-interpolation-filters="sRGB">
<feFlood flood-opacity="0" result="BackgroundImageFix"/>
<feBlend mode="normal" in="SourceGraphic" in2="BackgroundImageFix" result="shape"/>
<feGaussianBlur stdDeviation="3.5" result="effect1_foregroundBlur_456_8"/>
</filter>
<filter id="filter1_f_456_8" x="4.6886" y="7.02734" width="60.6189" height="56.8691" filterUnits="userSpaceOnUse" color-interpolation-filters="sRGB">
<feFlood flood-opacity="0" result="BackgroundImageFix"/>
<feBlend mode="normal" in="SourceGraphic" in2="BackgroundImageFix" result="shape"/>
<feGaussianBlur stdDeviation="2" result="effect1_foregroundBlur_456_8"/>
</filter>
<clipPath id="clip0_456_8">
<rect width="70" height="70" fill="white"/>
</clipPath>
</defs>
</svg>
