<svg width="70" height="70" viewBox="0 0 70 70" fill="none" xmlns="http://www.w3.org/2000/svg">
<path fill-rule="evenodd" clip-rule="evenodd" d="M51.6816 38.4643H25.2467L25.9259 42.7111C26.7195 42.7443 28.0795 42.7842 30.28 42.8046C34.4379 42.843 41.6841 42.8583 54.4535 42.8583V47.8964C40.5617 47.8964 33.2081 47.8786 29.1914 47.8317C27.183 47.8082 26.015 47.7788 25.2234 47.7349C24.8276 47.713 24.5219 47.6879 24.2335 47.649C23.9451 47.6102 23.6534 47.547 23.4505 47.49C23.2477 47.433 22.9666 47.3465 22.6291 47.1695C22.2917 46.9924 21.9129 46.7103 21.6235 46.3871C21.0447 45.7408 20.8418 45.1193 20.6861 44.5841C20.4521 43.7799 20.295 42.9086 20.0487 41.5422C19.9671 41.0901 19.8759 40.5837 19.7688 40.0077C19.6228 39.2225 19.46 38.3579 19.2866 37.4371C18.4321 32.8988 17.32 26.9924 16.6952 22.4774C16.6732 22.3189 16.6519 22.162 16.6308 22.0069C16.502 21.0606 16.3825 20.1824 16.1921 19.3976C15.5221 16.6357 13.9743 15.0306 9.70469 15.1719L9.69238 12.0672C11.9157 11.942 14.1559 12.0975 15.4817 12.7361C18.1333 14.0132 18.7774 15.852 19.1789 17.2806C19.2758 17.6253 19.3585 17.9461 19.4539 18.4951H55.7736C57.1831 18.4607 58.7223 19.2618 59.4981 20.4336C60.3307 21.5661 60.548 23.2814 60.0238 24.5842L55.9318 35.525C55.6409 36.3299 55.0442 37.1214 54.2693 37.6573C53.4943 38.1933 52.541 38.4737 51.6816 38.4643ZM54.1418 24.1367H22.5756C23.0575 26.8616 23.6399 29.9683 24.1795 32.8205H50.894L54.1418 24.1367Z" fill="#9A9AAF"/>
<path d="M48.0654 58.5038C48.9897 58.1296 49.9073 57.2376 50.3327 56.1541C50.7581 55.0706 50.6913 53.7956 50.2668 52.8967C49.8908 51.9766 48.9946 51.0633 47.9061 50.6399C46.8176 50.2164 45.5367 50.283 44.6336 50.7055C43.7093 51.0797 42.7917 51.9718 42.3663 53.0553C41.9409 54.1387 42.0077 55.4137 42.4323 56.3126C42.8082 57.2327 43.7044 58.1461 44.7929 58.5695C45.8814 58.9929 47.1623 58.9264 48.0654 58.5038Z" fill="#9A9AAF"/>
<path d="M30.2553 58.5448C31.1797 58.1706 32.0973 57.2786 32.5227 56.1951C32.9481 55.1116 32.8812 53.8366 32.4567 52.9377C32.0808 52.0176 31.1846 51.1043 30.0961 50.6809C29.0075 50.2575 27.7267 50.324 26.8236 50.7465C25.8992 51.1207 24.9816 52.0128 24.5562 53.0963C24.1308 54.1798 24.1977 55.4547 24.6222 56.3536C24.9981 57.2737 25.8943 58.1871 26.9828 58.6105C28.0714 59.0339 29.3522 58.9674 30.2553 58.5448Z" fill="#9A9AAF"/>
</svg>
