<svg width="42" height="39" viewBox="0 0 42 39" fill="none" xmlns="http://www.w3.org/2000/svg">
<g filter="url(#filter0_f_129_494)">
<path d="M8.13955 7.10352C8.28684 7.25431 17.4923 17.7347 17.4923 17.7347L7.25583 31.4572L20.5116 21.2784C20.5116 21.2784 35.5349 32.1358 35.3876 32.0604C35.2403 31.985 23.9729 17.9609 23.9729 17.9609L30.8217 7.32971L20.8062 15.6235L8.13955 7.10352Z" stroke="#6A8CFF" stroke-width="5" stroke-linejoin="round"/>
</g>
<path d="M8.13955 7.10352C8.28684 7.25431 17.4923 17.7347 17.4923 17.7347L7.25583 31.4572L20.5116 21.2784C20.5116 21.2784 35.5349 32.1358 35.3876 32.0604C35.2403 31.985 23.9729 17.9609 23.9729 17.9609L30.8217 7.32971L20.8062 15.6235L8.13955 7.10352Z" fill="url(#paint0_linear_129_494)" stroke="white" stroke-linejoin="round"/>
<defs>
<filter id="filter0_f_129_494" x="0.755798" y="0.603516" width="40.8757" height="37.8906" filterUnits="userSpaceOnUse" color-interpolation-filters="sRGB">
<feFlood flood-opacity="0" result="BackgroundImageFix"/>
<feBlend mode="normal" in="SourceGraphic" in2="BackgroundImageFix" result="shape"/>
<feGaussianBlur stdDeviation="2" result="effect1_foregroundBlur_129_494"/>
</filter>
<linearGradient id="paint0_linear_129_494" x1="21.3254" y1="32.007" x2="22.2699" y2="6.991" gradientUnits="userSpaceOnUse">
<stop offset="0.203125" stop-color="white"/>
<stop offset="0.5625" stop-color="#202055"/>
<stop offset="0.791667" stop-color="#323284"/>
<stop offset="0.979167" stop-color="#2D2D77"/>
</linearGradient>
</defs>
</svg>
