<svg width="47" height="47" viewBox="0 0 47 47" fill="none" xmlns="http://www.w3.org/2000/svg">
<path d="M38.6456 25.7111C39.0504 24.6731 39.393 23.5104 39.6733 22.2232C39.9639 20.9257 40.1093 19.8565 40.1093 19.0156C40.1093 18.4655 39.9795 18.1904 39.72 18.1904C39.4812 18.1904 39.0453 18.507 38.412 19.1402C37.4674 20.1575 36.6266 21.3305 35.8896 22.6592C35.1525 23.9776 34.5868 25.327 34.1923 26.7077C33.7979 28.0883 33.6006 29.4377 33.6006 30.7561C33.6006 31.7941 33.7096 32.5052 33.9276 32.8893C34.156 33.2734 34.5816 33.4654 35.2044 33.4654C35.7442 33.4654 36.4138 33.3149 37.2131 33.0139C39.0193 32.2976 40.9293 31.2751 42.9432 29.9464C43.8359 29.3755 44.4016 29.09 44.6404 29.09C44.9829 29.09 45.1542 29.2613 45.1542 29.6038V29.635C45.1023 30.1021 44.9414 30.6315 44.6715 31.2232C44.1317 32.3651 43.6646 33.1125 43.2702 33.4654C42.6058 34.0571 41.6923 34.6384 40.5297 35.2094C39.3774 35.7803 38.1941 36.2474 36.9795 36.6107C35.765 36.974 34.7477 37.1557 33.9276 37.1557C32.983 37.1557 32.0903 36.9792 31.2494 36.6263C30.4086 36.263 29.6768 35.7699 29.054 35.1471C28.4311 34.5242 27.9432 33.7976 27.5903 32.9671C27.2373 32.1367 27.0609 31.2492 27.0609 30.3045C27.0609 29.5883 27.1751 28.8149 27.4034 27.9845C27.6318 27.1436 27.964 26.2665 28.4 25.353C28.836 24.4395 29.329 23.5831 29.8792 22.7838C30.201 22.3063 30.5332 21.8495 30.8757 21.4136C31.2287 20.9776 31.6128 20.552 32.028 20.1367C32.4536 19.7215 32.9155 19.3219 33.4138 18.9378C33.9121 18.5537 34.3688 18.2267 34.784 17.9568C35.5107 17.4689 36.2633 17.0433 37.0418 16.68C37.8204 16.3167 38.5418 16.0468 39.2062 15.8703C39.8705 15.6939 40.4778 15.6056 41.0279 15.6056C42.3878 15.6056 43.4518 15.9586 44.22 16.6644C44.9881 17.3703 45.3722 18.3461 45.3722 19.5918C45.3722 20.8997 45.0504 22.27 44.4068 23.7025C43.7632 25.1246 42.9068 26.3703 41.8376 27.4395C41.1006 28.1973 40.3688 28.7942 39.6421 29.2301C38.9155 29.6661 38.2615 29.8841 37.6802 29.8841C37.1716 29.8841 36.9172 29.6402 36.9172 29.1523C36.9172 28.9239 37.0574 28.6073 37.3377 28.2025C37.7321 27.6419 38.1681 26.8115 38.6456 25.7111Z" fill="#37366A"/>
<path d="M38.6456 25.7111L38.8896 25.817L38.8932 25.8077L38.6456 25.7111ZM39.6733 22.2232L39.414 22.1652L39.4136 22.1667L39.6733 22.2232ZM38.412 19.1402L38.224 18.9522L38.2173 18.9594L38.412 19.1402ZM35.8896 22.6592L36.1215 22.7889L36.1219 22.7881L35.8896 22.6592ZM33.9276 32.8893L33.6965 33.0205L33.6992 33.0251L33.9276 32.8893ZM37.2131 33.0139L37.3068 33.2626L37.311 33.2609L37.2131 33.0139ZM42.9432 29.9464L42.8 29.7225L42.7968 29.7246L42.9432 29.9464ZM45.1542 29.635L45.4183 29.6643L45.42 29.6497V29.635H45.1542ZM44.6715 31.2232L44.9118 31.3368L44.9133 31.3335L44.6715 31.2232ZM43.2702 33.4654L43.4469 33.6639L43.4474 33.6635L43.2702 33.4654ZM40.5297 35.2094L40.4125 34.9708L40.4117 34.9712L40.5297 35.2094ZM31.2494 36.6263L31.144 36.8703L31.1466 36.8713L31.2494 36.6263ZM27.4034 27.9845L27.6597 28.0549L27.6599 28.0541L27.4034 27.9845ZM29.8792 22.7838L30.0981 22.9345L30.0996 22.9323L29.8792 22.7838ZM30.8757 21.4136L30.6692 21.2463L30.6668 21.2494L30.8757 21.4136ZM32.028 20.1367L31.8424 19.9465L31.8401 19.9488L32.028 20.1367ZM34.784 17.9568L34.9289 18.1797L34.9322 18.1775L34.784 17.9568ZM44.4068 23.7025L44.6489 23.812L44.6492 23.8114L44.4068 23.7025ZM41.8376 27.4395L41.6497 27.2516L41.6471 27.2542L41.8376 27.4395ZM37.3377 28.2025L37.1203 28.0495L37.1192 28.0512L37.3377 28.2025ZM38.8932 25.8077C39.3039 24.7545 39.6502 23.5782 39.9329 22.2798L39.4136 22.1667C39.1358 23.4426 38.797 24.5916 38.398 25.6146L38.8932 25.8077ZM39.9326 22.2813C40.2254 20.9743 40.375 19.8839 40.375 19.0156H39.8435C39.8435 19.8291 39.7025 20.877 39.414 22.1652L39.9326 22.2813ZM40.375 19.0156C40.375 18.7281 40.3424 18.4744 40.2523 18.2833C40.2056 18.1843 40.1388 18.0921 40.0437 18.0249C39.9461 17.956 39.8347 17.9246 39.72 17.9246V18.4561C39.7288 18.4561 39.733 18.4573 39.7342 18.4576C39.7352 18.4579 39.7358 18.4582 39.7369 18.459C39.7392 18.4606 39.7534 18.4716 39.7716 18.5101C39.8112 18.5941 39.8435 18.753 39.8435 19.0156H40.375ZM39.72 17.9246C39.6055 17.9246 39.4929 17.9614 39.3911 18.0092C39.2865 18.0583 39.1749 18.1278 39.0578 18.2128C38.8236 18.3829 38.5451 18.6314 38.2241 18.9523L38.6 19.3281C38.9122 19.0158 39.1683 18.7894 39.3701 18.6429C39.4709 18.5696 39.5528 18.5204 39.6168 18.4903C39.6836 18.459 39.7151 18.4561 39.72 18.4561V17.9246ZM38.2173 18.9594C37.2568 19.9938 36.4036 21.1846 35.6572 22.5303L36.1219 22.7881C36.8495 21.4764 37.678 20.3212 38.6068 19.321L38.2173 18.9594ZM35.6576 22.5296C34.9111 23.8649 34.3372 25.2333 33.9368 26.6347L34.4479 26.7807C34.8364 25.4208 35.394 24.0902 36.1215 22.7889L35.6576 22.5296ZM33.9368 26.6347C33.5362 28.0369 33.3349 29.411 33.3349 30.7561H33.8664C33.8664 29.4645 34.0596 28.1396 34.4479 26.7807L33.9368 26.6347ZM33.3349 30.7561C33.3349 31.2832 33.3625 31.7349 33.4197 32.1082C33.4764 32.4782 33.5647 32.7882 33.6965 33.0205L34.1587 32.7581C34.0726 32.6063 33.9974 32.3688 33.9451 32.0277C33.8933 31.6899 33.8664 31.267 33.8664 30.7561H33.3349ZM33.6992 33.0251C33.9933 33.5197 34.529 33.7312 35.2044 33.7312V33.1997C34.6342 33.1997 34.3187 33.027 34.156 32.7535L33.6992 33.0251ZM35.2044 33.7312C35.7893 33.7312 36.4929 33.5691 37.3067 33.2625L37.1194 32.7652C36.3347 33.0607 35.6991 33.1997 35.2044 33.1997V33.7312ZM37.311 33.2609C39.1377 32.5365 41.0639 31.5047 43.0895 30.1682L42.7968 29.7246C40.7947 31.0456 38.9009 32.0587 37.1151 32.7668L37.311 33.2609ZM43.0863 30.1703C43.5294 29.8869 43.8854 29.6782 44.1567 29.5413C44.2925 29.4729 44.4026 29.4246 44.4889 29.394C44.5797 29.3617 44.626 29.3557 44.6404 29.3557V28.8243C44.5354 28.8243 44.4215 28.8539 44.3111 28.8931C44.1963 28.9338 44.0644 28.9926 43.9173 29.0668C43.6228 29.2154 43.2496 29.435 42.8 29.7225L43.0863 30.1703ZM44.6404 29.3557C44.7707 29.3557 44.8196 29.3881 44.8379 29.4064C44.8561 29.4246 44.8885 29.4735 44.8885 29.6038H45.42C45.42 29.3916 45.3667 29.1836 45.2137 29.0305C45.0606 28.8775 44.8526 28.8243 44.6404 28.8243V29.3557ZM44.8885 29.6038V29.635H45.42V29.6038H44.8885ZM44.8901 29.6056C44.8423 30.0363 44.6921 30.5378 44.4298 31.1129L44.9133 31.3335C45.1908 30.7253 45.3624 30.1679 45.4183 29.6643L44.8901 29.6056ZM44.4313 31.1096C43.8913 32.2519 43.4433 32.9539 43.093 33.2674L43.4474 33.6635C43.886 33.271 44.3722 32.4782 44.9118 31.3368L44.4313 31.1096ZM43.0934 33.267C42.4532 33.8372 41.5625 34.4061 40.4125 34.9708L40.6468 35.4479C41.8222 34.8707 42.7584 34.277 43.4469 33.6639L43.0934 33.267ZM40.4117 34.9712C39.2727 35.5356 38.1033 35.9972 36.9034 36.3561L37.0557 36.8653C38.2848 36.4976 39.4822 36.025 40.6477 35.4475L40.4117 34.9712ZM36.9034 36.3561C35.7016 36.7156 34.7119 36.89 33.9276 36.89V37.4215C34.7835 37.4215 35.8284 37.2325 37.0557 36.8653L36.9034 36.3561ZM33.9276 36.89C33.017 36.89 32.1594 36.72 31.3523 36.3813L31.1466 36.8713C32.0212 37.2384 32.949 37.4215 33.9276 37.4215V36.89ZM31.3549 36.3824C30.5436 36.0318 29.84 35.5573 29.2419 34.9592L28.866 35.335C29.5135 35.9825 30.2737 36.4942 31.144 36.8702L31.3549 36.3824ZM29.2419 34.9592C28.6437 34.361 28.1748 33.6631 27.8349 32.8632L27.3457 33.0711C27.7117 33.9321 28.2185 34.6874 28.866 35.335L29.2419 34.9592ZM27.8349 32.8632C27.4965 32.0672 27.3266 31.2151 27.3266 30.3045H26.7951C26.7951 31.2832 26.9782 32.2062 27.3457 33.0711L27.8349 32.8632ZM27.3266 30.3045C27.3266 29.6163 27.4364 28.8669 27.6597 28.0549L27.1472 27.914C26.9138 28.7629 26.7951 29.5602 26.7951 30.3045H27.3266ZM27.6599 28.0541C27.8835 27.2309 28.2096 26.3688 28.6398 25.4675L28.1601 25.2385C27.7184 26.1642 27.3802 27.0563 27.147 27.9148L27.6599 28.0541ZM28.6398 25.4675C29.07 24.566 29.5562 23.7218 30.0981 22.9345L29.6603 22.6331C29.1019 23.4444 28.6019 24.313 28.1601 25.2385L28.6398 25.4675ZM30.0996 22.9323C30.4179 22.46 30.7463 22.0085 31.0847 21.5777L30.6668 21.2494C30.3201 21.6906 29.9841 22.1526 29.6588 22.6353L30.0996 22.9323ZM31.0823 21.5808C31.4291 21.1523 31.8069 20.7336 32.2159 20.3247L31.8401 19.9488C31.4186 20.3703 31.0282 20.8028 30.6692 21.2464L31.0823 21.5808ZM32.2136 20.327C32.6314 19.9193 33.0855 19.5264 33.576 19.1483L33.2516 18.7273C32.7456 19.1173 32.2758 19.5237 31.8424 19.9465L32.2136 20.327ZM33.576 19.1483C34.0701 18.7674 34.5209 18.4448 34.9289 18.1796L34.6392 17.734C34.2167 18.0087 33.754 18.34 33.2516 18.7273L33.576 19.1483ZM34.9322 18.1775C35.6476 17.6971 36.3883 17.2782 37.1542 16.9208L36.9294 16.4392C36.1382 16.8084 35.3737 17.2408 34.6359 17.7362L34.9322 18.1775ZM37.1542 16.9208C37.9219 16.5626 38.6284 16.2988 39.2744 16.1272L39.1379 15.6135C38.4552 15.7948 37.7188 16.0708 36.9294 16.4392L37.1542 16.9208ZM39.2744 16.1272C39.9218 15.9552 40.5057 15.8714 41.0279 15.8714V15.3399C40.4499 15.3399 39.8193 15.4325 39.1379 15.6135L39.2744 16.1272ZM41.0279 15.8714C42.342 15.8714 43.3345 16.2116 44.0402 16.8601L44.3998 16.4688C43.5692 15.7055 42.4336 15.3399 41.0279 15.3399V15.8714ZM44.0402 16.8601C44.743 17.506 45.1065 18.4048 45.1065 19.5918H45.638C45.638 18.2874 45.2333 17.2347 44.3998 16.4688L44.0402 16.8601ZM45.1065 19.5918C45.1065 20.8554 44.7957 22.1885 44.1644 23.5936L44.6492 23.8114C45.3052 22.3514 45.638 20.944 45.638 19.5918H45.1065ZM44.1647 23.5929C43.5339 24.9868 42.6956 26.2057 41.6497 27.2516L42.0255 27.6274C43.1181 26.5348 43.9926 25.2624 44.6489 23.812L44.1647 23.5929ZM41.6471 27.2542C40.9224 27.9994 40.2082 28.5806 39.5054 29.0023L39.7789 29.458C40.5293 29.0077 41.2789 28.3951 42.0281 27.6248L41.6471 27.2542ZM39.5054 29.0023C38.8023 29.4241 38.1962 29.6184 37.6802 29.6184V30.1499C38.3269 30.1499 39.0287 29.9081 39.7789 29.458L39.5054 29.0023ZM37.6802 29.6184C37.4641 29.6184 37.3514 29.5664 37.2919 29.5094C37.2346 29.4543 37.183 29.3524 37.183 29.1523H36.6515C36.6515 29.4401 36.7271 29.704 36.924 29.8929C37.1189 30.0799 37.3876 30.1499 37.6802 30.1499V29.6184ZM37.183 29.1523C37.183 29.0125 37.2782 28.7552 37.5561 28.3537L37.1192 28.0512C36.8365 28.4594 36.6515 28.8354 36.6515 29.1523H37.183ZM37.555 28.3554C37.9648 27.7731 38.4092 26.9235 38.8894 25.8169L38.4018 25.6053C37.927 26.6994 37.4995 27.5108 37.1203 28.0495L37.555 28.3554Z" fill="white"/>
<path d="M13.9111 22.1142L11.046 28.1713H15.2813L13.9734 22.1142H13.9111ZM12.572 18.0191L11.6222 16.3063C11.8609 16.1195 12.0841 15.9897 12.2917 15.917C13.091 15.6471 14.0564 15.5122 15.1879 15.5122C16.3298 15.5122 17.2121 15.8392 17.8349 16.4932C18.3747 17.0641 18.8159 17.8634 19.1585 18.8911C19.501 19.9188 19.8176 21.3824 20.1083 23.2821C20.264 24.2475 20.3989 24.9741 20.5131 25.462C20.8764 26.8218 21.1152 27.6938 21.2294 28.0779C21.354 28.4516 21.5719 29.0537 21.8834 29.8841C21.9872 30.1229 22.1221 30.4602 22.2882 30.8962C22.4647 31.3218 22.6308 31.7215 22.7865 32.0952C23.129 32.9049 23.6481 33.9741 24.3436 35.3028C23.4716 35.9152 22.7346 36.3564 22.1325 36.6263C21.5304 36.8962 20.9803 37.0311 20.482 37.0311C19.8695 37.0311 19.3557 36.9118 18.9405 36.673C18.5356 36.4343 18.1671 36.0554 17.8349 35.5363C17.4405 34.8305 17.046 33.8703 16.6516 32.6557C16.61 32.5415 16.5581 32.3962 16.4958 32.2197C16.4439 32.0433 16.3817 31.8512 16.309 31.6436C15.0945 32.1523 14.1498 32.4066 13.4751 32.4066C13.091 32.4066 12.7588 32.3962 12.4786 32.3755C12.2398 32.3547 11.1343 32.3235 9.16196 32.282L9.00626 32.5934C8.42494 33.808 7.88515 34.7318 7.38688 35.3651C6.88862 35.9983 6.31249 36.4446 5.65852 36.7042C5.01492 36.9637 4.20524 37.0934 3.22946 37.0934C2.66891 37.0934 2.26926 37.0311 2.03051 36.9066C1.79175 36.782 1.67238 36.5796 1.67238 36.2993C1.67238 35.9568 2.24331 35.0121 3.38517 33.4654C3.79001 32.9256 4.09105 32.5 4.28828 32.1886C3.19832 31.981 2.65334 31.5969 2.65334 31.0364C2.65334 30.5796 3.08933 29.8997 3.96129 28.9966C4.37652 28.5606 4.7606 28.2855 5.11354 28.1713C5.47686 28.0468 6.10488 27.9793 6.99761 27.9689C7.82806 26.443 8.35747 25.4724 8.58584 25.0571C8.81421 24.6315 9.11006 24.1021 9.47338 23.4689C9.8367 22.8253 10.2467 22.0987 10.7035 21.289C11.1706 20.4689 11.7934 19.379 12.572 18.0191Z" fill="#2A4280"/>
<path d="M13.9111 22.1142V21.8485H13.7428L13.6709 22.0006L13.9111 22.1142ZM11.046 28.1713L10.8058 28.0577L10.6264 28.4371H11.046V28.1713ZM15.2813 28.1713V28.4371H15.6106L15.5411 28.1152L15.2813 28.1713ZM13.9734 22.1142L14.2331 22.0582L14.1878 21.8485H13.9734V22.1142ZM12.572 18.0191L12.8026 18.1511L12.877 18.0212L12.8044 17.8902L12.572 18.0191ZM11.6222 16.3063L11.4584 16.097L11.2798 16.2368L11.3898 16.4352L11.6222 16.3063ZM12.2917 15.917L12.2067 15.6653L12.2039 15.6662L12.2917 15.917ZM17.8349 16.4932L18.028 16.3106L18.0274 16.3099L17.8349 16.4932ZM20.1083 23.2821L19.8456 23.3223L19.8459 23.3244L20.1083 23.2821ZM20.5131 25.462L20.2543 25.5226L20.2564 25.5306L20.5131 25.462ZM21.2294 28.0779L20.9745 28.1537L20.9773 28.1619L21.2294 28.0779ZM21.8834 29.8841L21.6342 29.9775L21.6397 29.9901L21.8834 29.8841ZM22.2882 30.8962L22.0398 30.9909L22.0427 30.998L22.2882 30.8962ZM22.7865 32.0952L22.5412 32.1974L22.5417 32.1987L22.7865 32.0952ZM24.3436 35.3028L24.4963 35.5202L24.6872 35.3862L24.579 35.1795L24.3436 35.3028ZM22.1325 36.6263L22.0238 36.3838L22.1325 36.6263ZM18.9405 36.673L18.8055 36.9019L18.808 36.9034L18.9405 36.673ZM17.8349 35.5363L17.603 35.666L17.6068 35.6729L17.6111 35.6796L17.8349 35.5363ZM16.6516 32.6557L16.9045 32.5736L16.9013 32.5649L16.6516 32.6557ZM16.4958 32.2197L16.2409 32.2947L16.2429 32.3015L16.2453 32.3082L16.4958 32.2197ZM16.309 31.6436L16.5598 31.5558L16.4666 31.2895L16.2063 31.3985L16.309 31.6436ZM12.4786 32.3755L12.4555 32.6402L12.4589 32.6405L12.4786 32.3755ZM9.16196 32.282L9.16756 32.0163L8.99947 32.0128L8.92428 32.1632L9.16196 32.282ZM9.00626 32.5934L8.76853 32.4746L8.76655 32.4787L9.00626 32.5934ZM5.65852 36.7042L5.5605 36.4571L5.55914 36.4577L5.65852 36.7042ZM3.38517 33.4654L3.17257 33.306L3.17138 33.3076L3.38517 33.4654ZM4.28828 32.1886L4.51279 32.3308L4.72186 32.0007L4.33801 31.9276L4.28828 32.1886ZM3.96129 28.9966L4.15247 29.1812L4.15373 29.1798L3.96129 28.9966ZM5.11354 28.1713L5.19535 28.4242L5.19972 28.4227L5.11354 28.1713ZM6.99761 27.9689L7.0007 28.2346L7.15653 28.2328L7.23103 28.0959L6.99761 27.9689ZM8.58584 25.0571L8.8187 25.1852L8.82 25.1828L8.58584 25.0571ZM9.47338 23.4689L9.70388 23.6012L9.7048 23.5996L9.47338 23.4689ZM10.7035 21.289L10.4726 21.1575L10.472 21.1584L10.7035 21.289ZM13.6709 22.0006L10.8058 28.0577L11.2863 28.2849L14.1513 22.2279L13.6709 22.0006ZM11.046 28.4371H15.2813V27.9056H11.046V28.4371ZM15.5411 28.1152L14.2331 22.0582L13.7136 22.1703L15.0216 28.2274L15.5411 28.1152ZM13.9734 21.8485H13.9111V22.38H13.9734V21.8485ZM12.8044 17.8902L11.8546 16.1774L11.3898 16.4352L12.3396 18.148L12.8044 17.8902ZM11.7859 16.5156C12.0098 16.3404 12.2075 16.2281 12.3795 16.1679L12.2039 15.6662C11.9607 15.7514 11.712 15.8986 11.4584 16.097L11.7859 16.5156ZM12.3767 16.1688C13.1411 15.9107 14.0761 15.7779 15.1879 15.7779V15.2465C14.0367 15.2465 13.0409 15.3836 12.2067 15.6653L12.3767 16.1688ZM15.1879 15.7779C16.2774 15.7779 17.0823 16.0883 17.6425 16.6764L18.0274 16.3099C17.3419 15.5901 16.3821 15.2465 15.1879 15.2465V15.7779ZM17.6418 16.6757C18.1469 17.21 18.5717 17.9711 18.9064 18.9751L19.4106 18.807C19.0601 17.7557 18.6025 16.9182 18.028 16.3106L17.6418 16.6757ZM18.9064 18.9751C19.2419 19.9816 19.5558 21.428 19.8456 23.3223L20.371 23.2419C20.0795 21.3369 19.7602 19.8559 19.4106 18.807L18.9064 18.9751ZM19.8459 23.3244C20.0019 24.2913 20.138 25.0254 20.2544 25.5225L20.7719 25.4014C20.6599 24.9228 20.5261 24.2036 20.3706 23.2397L19.8459 23.3244ZM20.2564 25.5306C20.6194 26.8894 20.8592 27.7653 20.9747 28.1536L21.4841 28.0022C21.3712 27.6224 21.1335 26.7543 20.7699 25.3934L20.2564 25.5306ZM20.9773 28.1619C21.1035 28.5407 21.323 29.1467 21.6345 29.9774L22.1322 29.7908C21.8209 28.9606 21.6044 28.3625 21.4815 27.9939L20.9773 28.1619ZM21.6397 29.9901C21.741 30.2232 21.8743 30.5562 22.0399 30.9908L22.5365 30.8016C22.3699 30.3643 22.2333 30.0225 22.1271 29.7782L21.6397 29.9901ZM22.0427 30.998C22.2192 31.4237 22.3854 31.8235 22.5412 32.1974L23.0318 31.993C22.8761 31.6194 22.7101 31.2199 22.5337 30.7944L22.0427 30.998ZM22.5417 32.1987C22.8884 33.0181 23.4112 34.0947 24.1081 35.426L24.579 35.1795C23.8849 33.8535 23.3697 32.7916 23.0312 31.9916L22.5417 32.1987ZM24.1908 35.0853C23.3254 35.6932 22.604 36.1237 22.0238 36.3838L22.2412 36.8688C22.8652 36.5891 23.6178 36.1373 24.4963 35.5202L24.1908 35.0853ZM22.0238 36.3838C21.4454 36.6431 20.9327 36.7654 20.482 36.7654V37.2969C21.0278 37.2969 21.6155 37.1493 22.2412 36.8688L22.0238 36.3838ZM20.482 36.7654C19.9033 36.7654 19.4381 36.6526 19.0729 36.4426L18.808 36.9034C19.2733 37.1709 19.8357 37.2969 20.482 37.2969V36.7654ZM19.0755 36.4441C18.7159 36.2321 18.3752 35.8875 18.0588 35.3931L17.6111 35.6796C17.959 36.2232 18.3553 36.6364 18.8055 36.9019L19.0755 36.4441ZM18.0669 35.4067C17.6843 34.722 17.2961 33.78 16.9043 32.5736L16.3988 32.7378C16.7959 33.9605 17.1966 34.9389 17.603 35.666L18.0669 35.4067ZM16.9013 32.5649C16.8602 32.4518 16.8086 32.3073 16.7464 32.1313L16.2453 32.3082C16.3077 32.4851 16.3599 32.6313 16.4018 32.7465L16.9013 32.5649ZM16.7508 32.1448C16.6974 31.9633 16.6337 31.7669 16.5598 31.5558L16.0582 31.7314C16.1296 31.9356 16.1905 32.1233 16.2409 32.2947L16.7508 32.1448ZM16.2063 31.3985C14.9993 31.904 14.095 32.1409 13.4751 32.1409V32.6723C14.2047 32.6723 15.1896 32.4005 16.4116 31.8887L16.2063 31.3985ZM13.4751 32.1409C13.0954 32.1409 12.7701 32.1306 12.4982 32.1104L12.4589 32.6405C12.7476 32.6619 13.0867 32.6723 13.4751 32.6723V32.1409ZM12.5016 32.1107C12.2515 32.089 11.133 32.0577 9.16756 32.0163L9.15637 32.5477C11.1356 32.5894 12.2281 32.6204 12.4555 32.6402L12.5016 32.1107ZM8.92428 32.1632L8.76857 32.4746L9.24394 32.7123L9.39965 32.4009L8.92428 32.1632ZM8.76655 32.4787C8.18886 33.6857 7.65888 34.5897 7.17805 35.2007L7.59572 35.5294C8.11142 34.874 8.66102 33.9303 9.24596 32.7082L8.76655 32.4787ZM7.17805 35.2007C6.7045 35.8025 6.16488 36.2173 5.5605 36.4571L5.75654 36.9512C6.46011 36.672 7.07274 36.194 7.59572 35.5294L7.17805 35.2007ZM5.55914 36.4577C4.95716 36.7004 4.18399 36.8277 3.22946 36.8277V37.3592C4.22648 37.3592 5.07268 37.2269 5.7579 36.9506L5.55914 36.4577ZM3.22946 36.8277C2.67496 36.8277 2.33136 36.7638 2.15343 36.671L1.90758 37.1422C2.20716 37.2985 2.66287 37.3592 3.22946 37.3592V36.8277ZM2.15343 36.671C2.07152 36.6282 2.02175 36.5788 1.99081 36.5263C1.95952 36.4733 1.93812 36.4012 1.93812 36.2993H1.40663C1.40663 36.4777 1.44492 36.647 1.53301 36.7963C1.62144 36.9463 1.75074 37.0603 1.90758 37.1422L2.15343 36.671ZM1.93812 36.2993C1.93812 36.2727 1.95346 36.1925 2.02235 36.0372C2.08739 35.8906 2.18821 35.7027 2.32801 35.4714C2.60726 35.0093 3.0299 34.3941 3.59897 33.6232L3.17138 33.3076C2.59858 34.0835 2.16482 34.7139 1.87314 35.1965C1.72748 35.4375 1.61419 35.6466 1.53651 35.8218C1.46265 35.9883 1.40663 36.1547 1.40663 36.2993H1.93812ZM3.59777 33.6249C4.00398 33.0832 4.30994 32.6511 4.51279 32.3308L4.06378 32.0464C3.87216 32.349 3.57605 32.768 3.17258 33.306L3.59777 33.6249ZM4.33801 31.9276C3.80866 31.8267 3.44276 31.688 3.21516 31.5276C2.99805 31.3746 2.91908 31.2131 2.91908 31.0364H2.3876C2.3876 31.4202 2.58112 31.731 2.90899 31.962C3.22638 32.1857 3.67794 32.3429 4.23856 32.4497L4.33801 31.9276ZM2.91908 31.0364C2.91908 30.8846 2.99509 30.6531 3.20403 30.3273C3.40888 30.0078 3.72276 29.6262 4.15247 29.1812L3.77012 28.812C3.32786 29.27 2.98776 29.6799 2.75663 30.0404C2.52958 30.3945 2.3876 30.7313 2.3876 31.0364H2.91908ZM4.15373 29.1798C4.5554 28.7581 4.90293 28.5188 5.19534 28.4242L5.03174 27.9185C4.61827 28.0522 4.19763 28.3631 3.76886 28.8133L4.15373 29.1798ZM5.19972 28.4227C5.51891 28.3133 6.10877 28.245 7.0007 28.2346L6.99452 27.7032C6.101 27.7136 5.4348 27.7802 5.02735 27.9199L5.19972 28.4227ZM7.23103 28.0959C8.06156 26.5698 8.59066 25.5998 8.81869 25.1852L8.35299 24.9291C8.12428 25.3449 7.59456 26.3161 6.7642 27.8419L7.23103 28.0959ZM8.82 25.1828C9.04675 24.7602 9.34125 24.2332 9.70388 23.6012L9.24288 23.3367C8.87887 23.9711 8.58168 24.5029 8.35168 24.9315L8.82 25.1828ZM9.7048 23.5996C10.0681 22.9559 10.4782 22.2293 10.9349 21.4196L10.472 21.1584C10.0153 21.9681 9.60527 22.6947 9.24197 23.3383L9.7048 23.5996ZM10.9344 21.4205C11.4014 20.6007 12.0241 19.5109 12.8026 18.1511L12.3414 17.8871C11.5628 19.247 10.9398 20.3372 10.4726 21.1575L10.9344 21.4205Z" fill="white"/>
<path d="M29.1518 18.3017L25.2828 15.105L25.1598 15.0034L25.0334 15.1007L20.7162 18.4236L24.1154 14.2692L24.2146 14.148L24.1206 14.0226L20.8558 9.66884L25.0215 13.4247L25.1533 13.5436L25.287 13.4268L29.1061 10.0913L26.0459 14.1097L25.9522 14.2328L26.0478 14.3545L29.1518 18.3017Z" fill="#F0EBFF" stroke="#63629C" stroke-width="0.4"/>
<path d="M25.934 13.1656L25.958 13.4234L26.2166 13.4373L39.2608 14.1379L26.2166 14.8386L25.9475 14.853L25.9331 15.1221L25.1595 29.5424L24.3859 15.1221L24.3716 14.8549L24.1045 14.8387L12.5223 14.1379L24.1045 13.4372L24.3611 13.4216L24.385 13.1656L25.1595 4.86996L25.934 13.1656Z" fill="#E4EAFC" stroke="#2A4280" stroke-width="0.6"/>
</svg>
