<svg width="71" height="70" viewBox="0 0 71 70" fill="none" xmlns="http://www.w3.org/2000/svg">
<path d="M54.0603 48.7603L44.7252 39.5561C44.6165 39.4495 44.4965 39.3682 44.3818 39.2796C45.9588 36.894 46.8795 34.0525 46.8795 30.9918C46.8795 22.5831 39.967 15.7676 31.4344 15.7676C22.9067 15.7676 15.9894 22.5831 15.9894 30.9918C15.9894 39.4018 22.9067 46.2157 31.4344 46.2157C34.5383 46.2157 37.4243 45.3057 39.8482 43.751C39.9365 43.8667 40.0174 43.9817 40.1243 44.0873L49.4606 53.2927C50.0981 53.9192 50.9282 54.2316 51.7596 54.2316C52.5916 54.2316 53.4223 53.9193 54.0592 53.2943C55.3275 52.0412 55.3275 50.0124 54.0603 48.7603ZM31.4344 41.4084C25.609 41.4084 20.867 36.7348 20.867 30.9918C20.867 25.2498 25.609 20.575 31.4344 20.575C37.2599 20.575 42.0018 25.2498 42.0018 30.9918C42.0018 36.7347 37.2599 41.4084 31.4344 41.4084Z" fill="#9A9AAF"/>
</svg>
