<svg width="71" height="70" viewBox="0 0 71 70" fill="none" xmlns="http://www.w3.org/2000/svg">
<g clip-path="url(#clip0_460_29)">
<g filter="url(#filter0_f_460_29)">
<path d="M53.7604 48.7603L44.4253 39.5561C44.3166 39.4495 44.1966 39.3682 44.0819 39.2796C45.6588 36.894 46.5796 34.0525 46.5796 30.9918C46.5796 22.5831 39.6671 15.7676 31.1345 15.7676C22.6068 15.7676 15.6895 22.5831 15.6895 30.9918C15.6895 39.4018 22.6068 46.2157 31.1345 46.2157C34.2384 46.2157 37.1244 45.3057 39.5482 43.751C39.6365 43.8667 39.7175 43.9817 39.8244 44.0873L49.1607 53.2927C49.7982 53.9192 50.6283 54.2316 51.4597 54.2316C52.2916 54.2316 53.1224 53.9193 53.7592 53.2943C55.0275 52.0412 55.0275 50.0124 53.7604 48.7603ZM31.1345 41.4084C25.309 41.4084 20.5671 36.7348 20.5671 30.9918C20.5671 25.2497 25.3091 20.575 31.1345 20.575C36.96 20.575 41.7019 25.2497 41.7019 30.9918C41.7019 36.7347 36.96 41.4084 31.1345 41.4084Z" fill="#7D97ED"/>
<path d="M53.7604 48.7603L44.4253 39.5561C44.3166 39.4495 44.1966 39.3682 44.0819 39.2796C45.6588 36.894 46.5796 34.0525 46.5796 30.9918C46.5796 22.5831 39.6671 15.7676 31.1345 15.7676C22.6068 15.7676 15.6895 22.5831 15.6895 30.9918C15.6895 39.4018 22.6068 46.2157 31.1345 46.2157C34.2384 46.2157 37.1244 45.3057 39.5482 43.751C39.6365 43.8667 39.7175 43.9817 39.8244 44.0873L49.1607 53.2927C49.7982 53.9192 50.6283 54.2316 51.4597 54.2316C52.2916 54.2316 53.1224 53.9193 53.7592 53.2943C55.0275 52.0412 55.0275 50.0124 53.7604 48.7603ZM31.1345 41.4084C25.309 41.4084 20.5671 36.7348 20.5671 30.9918C20.5671 25.2497 25.3091 20.575 31.1345 20.575C36.96 20.575 41.7019 25.2497 41.7019 30.9918C41.7019 36.7347 36.96 41.4084 31.1345 41.4084Z" stroke="#7D97ED" stroke-width="11"/>
</g>
<g filter="url(#filter1_f_460_29)">
<path d="M53.7604 48.7603L44.4253 39.5561C44.3166 39.4495 44.1966 39.3682 44.0819 39.2796C45.6588 36.894 46.5796 34.0525 46.5796 30.9918C46.5796 22.5831 39.6671 15.7676 31.1345 15.7676C22.6068 15.7676 15.6895 22.5831 15.6895 30.9918C15.6895 39.4018 22.6068 46.2157 31.1345 46.2157C34.2384 46.2157 37.1244 45.3057 39.5482 43.751C39.6365 43.8667 39.7175 43.9817 39.8244 44.0873L49.1607 53.2927C49.7982 53.9192 50.6283 54.2316 51.4597 54.2316C52.2916 54.2316 53.1224 53.9193 53.7592 53.2943C55.0275 52.0412 55.0275 50.0124 53.7604 48.7603ZM31.1345 41.4084C25.309 41.4084 20.5671 36.7348 20.5671 30.9918C20.5671 25.2497 25.3091 20.575 31.1345 20.575C36.96 20.575 41.7019 25.2497 41.7019 30.9918C41.7019 36.7347 36.96 41.4084 31.1345 41.4084Z" fill="#99BCFF"/>
<path d="M43.2477 38.7281L42.7356 39.5027L43.4702 40.0707C43.5394 40.1242 43.5854 40.1584 43.6188 40.1833C43.6711 40.2222 43.6927 40.2384 43.7247 40.2696C43.7248 40.2698 43.725 40.2699 43.7251 40.2701L53.0575 49.4716C53.9278 50.3316 53.9287 51.7196 53.0578 52.5815C52.6164 53.0142 52.0412 53.2316 51.4597 53.2316C50.8792 53.2316 50.3046 53.0144 49.8623 52.5802C49.8621 52.5799 49.8618 52.5797 49.8616 52.5795L40.5274 43.3762C40.5274 43.3762 40.5274 43.3762 40.5274 43.3762C40.4941 43.3432 40.4726 43.3149 40.409 43.231C40.3909 43.2071 40.3694 43.1786 40.3432 43.1443L39.784 42.4117L39.0083 42.9093C36.7396 44.3645 34.04 45.2157 31.1345 45.2157C23.1452 45.2157 16.6895 38.8358 16.6895 30.9918C16.6895 23.149 23.1453 16.7676 31.1345 16.7676C39.1283 16.7676 45.5796 23.1488 45.5796 30.9918C45.5796 33.8482 44.7211 36.4992 43.2477 38.7281ZM19.5671 30.9918C19.5671 37.3006 24.7704 42.4084 31.1345 42.4084C37.4986 42.4084 42.7019 37.3006 42.7019 30.9918C42.7019 24.684 37.4987 19.575 31.1345 19.575C24.7704 19.575 19.5671 24.684 19.5671 30.9918Z" stroke="#99BCFF" stroke-width="2"/>
</g>
<path d="M53.7604 48.7603L44.4253 39.5561C44.3166 39.4495 44.1966 39.3682 44.0819 39.2796C45.6588 36.894 46.5796 34.0525 46.5796 30.9918C46.5796 22.5831 39.6671 15.7676 31.1345 15.7676C22.6068 15.7676 15.6895 22.5831 15.6895 30.9918C15.6895 39.4018 22.6068 46.2157 31.1345 46.2157C34.2384 46.2157 37.1244 45.3057 39.5482 43.751C39.6365 43.8667 39.7175 43.9817 39.8244 44.0873L49.1607 53.2927C49.7982 53.9192 50.6283 54.2316 51.4597 54.2316C52.2916 54.2316 53.1224 53.9193 53.7592 53.2943C55.0275 52.0412 55.0275 50.0124 53.7604 48.7603ZM31.1345 41.4084C25.309 41.4084 20.5671 36.7348 20.5671 30.9918C20.5671 25.2497 25.3091 20.575 31.1345 20.575C36.96 20.575 41.7019 25.2497 41.7019 30.9918C41.7019 36.7347 36.96 41.4084 31.1345 41.4084Z" fill="#B3CAF5"/>
</g>
<defs>
<filter id="filter0_f_460_29" x="-0.810547" y="-0.732422" width="72.0212" height="71.4648" filterUnits="userSpaceOnUse" color-interpolation-filters="sRGB">
<feFlood flood-opacity="0" result="BackgroundImageFix"/>
<feBlend mode="normal" in="SourceGraphic" in2="BackgroundImageFix" result="shape"/>
<feGaussianBlur stdDeviation="5.5" result="effect1_foregroundBlur_460_29"/>
</filter>
<filter id="filter1_f_460_29" x="11.6895" y="11.7676" width="47.0212" height="46.4648" filterUnits="userSpaceOnUse" color-interpolation-filters="sRGB">
<feFlood flood-opacity="0" result="BackgroundImageFix"/>
<feBlend mode="normal" in="SourceGraphic" in2="BackgroundImageFix" result="shape"/>
<feGaussianBlur stdDeviation="2" result="effect1_foregroundBlur_460_29"/>
</filter>
<clipPath id="clip0_460_29">
<rect width="70" height="70" fill="white" transform="translate(0.200012)"/>
</clipPath>
</defs>
</svg>
