<svg width="70" height="70" viewBox="0 0 70 70" fill="none" xmlns="http://www.w3.org/2000/svg">
<g clip-path="url(#clip0_454_7)">
<g filter="url(#filter0_f_454_7)">
<path fill-rule="evenodd" clip-rule="evenodd" d="M17.4514 46.6633C19.4612 43.2965 22.5548 40.4023 26.0437 38.731C24.5517 37.5426 23.3702 36.1086 22.5221 34.6363C21.6646 33.1561 21.0055 31.393 20.722 29.4851C20.4385 27.5771 20.5305 25.5243 21.0401 23.5827C21.5497 21.6411 22.4768 19.8107 23.6593 18.2932C24.8419 16.7757 26.2799 15.571 27.7515 14.7111C29.221 13.8473 30.9713 13.1834 32.8654 12.8978C34.7595 12.6122 36.7974 12.7049 38.7249 13.2182C40.6525 13.7315 42.4696 14.6654 43.9761 15.8566C45.4826 17.0477 46.6785 18.4963 47.5323 19.9787C48.3064 21.3162 48.9192 22.8807 49.2388 24.578C49.5585 26.2753 49.585 28.1054 49.2662 29.8883C48.9473 31.6711 48.2831 33.4066 47.3621 34.9233C46.4411 36.44 45.2633 37.738 43.9899 38.7475C47.4711 40.4233 50.5551 43.3168 52.5583 46.6797C54.5615 50.0426 55.484 53.8748 55.4616 57.2627H50.0065C50.0088 55.4851 49.6867 53.5581 48.9529 51.6985C48.2191 49.839 47.0735 48.0469 45.6112 46.574C44.1489 45.101 42.3699 43.947 40.5238 43.2079C38.6778 42.4687 36.7647 42.1443 35 42.1465C33.2352 42.1443 31.3222 42.4687 29.4761 43.2079C27.6301 43.947 25.851 45.101 24.3887 46.574C22.9264 48.0469 21.7808 49.839 21.047 51.6985C20.3132 53.5581 19.9911 55.4851 19.9934 57.2627H14.5384C14.5157 53.8694 15.4416 50.0301 17.4514 46.6633ZM36.3739 36.2829C37.5538 36.105 38.6442 35.6914 39.5596 35.1533C40.4764 34.6176 41.3722 33.8672 42.1088 32.9218C42.8455 31.9765 43.423 30.8362 43.7405 29.6267C44.0579 28.4172 44.1153 27.1384 43.9386 25.9498C43.762 24.7613 43.3514 23.663 42.8172 22.7409C42.2854 21.8174 41.5404 20.915 40.602 20.173C39.6635 19.4309 38.5315 18.8492 37.3307 18.5294C36.13 18.2097 34.8605 18.1519 33.6805 18.3298C32.5006 18.5077 31.4102 18.9213 30.4948 19.4594C29.5781 19.9951 28.6823 20.7455 27.9456 21.6909C27.2089 22.6362 26.6314 23.7765 26.314 24.986C25.9965 26.1955 25.9392 27.4743 26.1158 28.6629C26.2924 29.8514 26.703 30.9498 27.2372 31.8718C27.769 32.7953 28.514 33.6977 29.4525 34.4397C30.391 35.1818 31.523 35.7635 32.7237 36.0833C33.9245 36.403 35.194 36.4608 36.3739 36.2829Z" fill="#7D97ED"/>
<path d="M26.0437 38.731L27.7718 42.3384L33.5301 39.58L28.5358 35.6021L26.0437 38.731ZM17.4514 46.6633L14.0168 44.613L14.0168 44.6131L17.4514 46.6633ZM22.5221 34.6363L25.9882 32.6398L25.9833 32.6313L22.5221 34.6363ZM20.722 29.4851L16.7654 30.073L16.7654 30.073L20.722 29.4851ZM21.0401 23.5827L17.1711 22.5673L17.1711 22.5673L21.0401 23.5827ZM23.6593 18.2932L26.8144 20.7519L26.8144 20.7519L23.6593 18.2932ZM27.7515 14.7111L29.7696 18.1647L29.7784 18.1595L27.7515 14.7111ZM32.8654 12.8978L33.4618 16.8531L33.4618 16.8531L32.8654 12.8978ZM38.7249 13.2182L37.6956 17.0835L37.6956 17.0835L38.7249 13.2182ZM43.9761 15.8566L46.457 12.7189L46.457 12.7189L43.9761 15.8566ZM47.5323 19.9787L44.066 21.9749L44.0703 21.9824L47.5323 19.9787ZM49.2388 24.578L45.3079 25.3183L45.3079 25.3183L49.2388 24.578ZM49.2662 29.8883L45.3286 29.1841L45.3286 29.1841L49.2662 29.8883ZM47.3621 34.9233L43.9431 32.8472L43.9431 32.8472L47.3621 34.9233ZM43.9899 38.7475L41.5049 35.613L36.4994 39.5812L42.255 42.3517L43.9899 38.7475ZM55.4616 57.2627V61.2627H59.4351L59.4615 57.2892L55.4616 57.2627ZM50.0065 57.2627L46.0065 57.2577L46.0015 61.2627H50.0065V57.2627ZM48.9529 51.6985L45.2321 53.1668L45.2321 53.1668L48.9529 51.6985ZM45.6112 46.574L48.4499 43.7558L48.4499 43.7558L45.6112 46.574ZM40.5238 43.2079L39.0369 46.9212L39.0369 46.9212L40.5238 43.2079ZM35 42.1465L34.9948 46.1465L35.0051 46.1465L35 42.1465ZM29.4761 43.2079L30.963 46.9212L30.963 46.9212L29.4761 43.2079ZM24.3887 46.574L21.55 43.7558L21.55 43.7558L24.3887 46.574ZM21.047 51.6985L24.7678 53.1668L24.7678 53.1668L21.047 51.6985ZM19.9934 57.2627V61.2627H23.9985L23.9934 57.2577L19.9934 57.2627ZM14.5384 57.2627L10.5385 57.2894L10.565 61.2627H14.5384V57.2627ZM39.5596 35.1533L37.5415 31.6997L37.5326 31.7049L39.5596 35.1533ZM36.3739 36.2829L36.9703 40.2382L36.9703 40.2382L36.3739 36.2829ZM42.1088 32.9218L38.9537 30.4631L38.9537 30.4631L42.1088 32.9218ZM43.7405 29.6267L39.8715 28.6113L39.8715 28.6113L43.7405 29.6267ZM43.9386 25.9498L39.9821 26.5378L39.9821 26.5378L43.9386 25.9498ZM42.8172 22.7409L39.351 24.7371L39.3561 24.7459L42.8172 22.7409ZM40.602 20.173L38.121 23.3107L38.121 23.3107L40.602 20.173ZM37.3307 18.5294L38.3601 14.6641L38.3601 14.6641L37.3307 18.5294ZM33.6805 18.3298L34.2769 22.2851L34.2769 22.2851L33.6805 18.3298ZM30.4948 19.4594L32.5129 22.913L32.5218 22.9078L30.4948 19.4594ZM27.9456 21.6909L24.7905 19.2322L24.7904 19.2322L27.9456 21.6909ZM26.314 24.986L30.1829 26.0014L30.1829 26.0014L26.314 24.986ZM26.1158 28.6629L22.1592 29.2508L22.1592 29.2509L26.1158 28.6629ZM27.2372 31.8718L30.7035 29.8756L30.6984 29.8668L27.2372 31.8718ZM29.4525 34.4397L31.9334 31.302L31.9334 31.302L29.4525 34.4397ZM32.7237 36.0833L33.7531 32.218L33.753 32.218L32.7237 36.0833ZM24.3157 35.1235C20.0796 37.1527 16.408 40.6073 14.0168 44.613L20.886 48.7136C22.5143 45.9858 25.03 43.6518 27.7718 42.3384L24.3157 35.1235ZM19.056 36.6329C20.1397 38.5141 21.6437 40.3401 23.5517 41.8598L28.5358 35.6021C27.4597 34.745 26.6007 33.7031 25.9882 32.6398L19.056 36.6329ZM16.7654 30.073C17.1275 32.5091 17.9654 34.7502 19.0609 36.6414L25.9833 32.6313C25.3639 31.5621 24.8836 30.2769 24.6785 28.8971L16.7654 30.073ZM17.1711 22.5673C16.5201 25.0479 16.4049 27.6468 16.7654 30.073L24.6785 28.8971C24.472 27.5075 24.5409 26.0008 24.9091 24.5981L17.1711 22.5673ZM20.5042 15.8345C18.9977 17.7677 17.8222 20.0866 17.1711 22.5673L24.9091 24.5982C25.2771 23.1957 25.9558 21.8537 26.8144 20.7519L20.5042 15.8345ZM25.7334 11.2575C23.8485 12.3589 22.0168 13.8935 20.5042 15.8345L26.8144 20.7519C27.667 19.6579 28.7112 18.7831 29.7696 18.1646L25.7334 11.2575ZM32.269 8.94249C29.8393 9.30886 27.6065 10.1565 25.7246 11.2626L29.7784 18.1595C30.8355 17.5382 32.1033 17.0579 33.4618 16.8531L32.269 8.94249ZM39.7543 9.35292C37.2809 8.69426 34.689 8.57759 32.269 8.94249L33.4618 16.8531C34.83 16.6468 36.3139 16.7156 37.6956 17.0835L39.7543 9.35292ZM46.457 12.7189C44.5357 11.1997 42.2275 10.0115 39.7543 9.35292L37.6956 17.0835C39.0774 17.4515 40.4035 18.1311 41.4952 18.9942L46.457 12.7189ZM50.9985 17.9824C49.9079 16.0886 48.386 14.2441 46.457 12.7189L41.4952 18.9942C42.5792 19.8514 43.4492 20.904 44.066 21.9749L50.9985 17.9824ZM53.1697 23.8377C52.7619 21.6723 51.9827 19.6828 50.9942 17.975L44.0703 21.9824C44.6301 22.9496 45.0764 24.0891 45.3079 25.3183L53.1697 23.8377ZM53.2037 30.5925C53.6108 28.3161 53.5762 25.9962 53.1697 23.8377L45.3079 25.3183C45.5407 26.5544 45.5592 27.8948 45.3286 29.1841L53.2037 30.5925ZM50.7811 36.9995C51.9546 35.067 52.7969 32.8671 53.2037 30.5924L45.3286 29.1841C45.0978 30.4751 44.6116 31.7462 43.9431 32.8472L50.7811 36.9995ZM46.4748 41.882C48.1061 40.5888 49.605 38.9363 50.7811 36.9994L43.9431 32.8472C43.2772 33.9438 42.4205 34.8872 41.5049 35.613L46.4748 41.882ZM55.9948 44.6326C53.6114 40.6315 49.9512 37.1778 45.7248 35.1433L42.255 42.3517C44.991 43.6687 47.4988 46.0022 49.1218 48.7268L55.9948 44.6326ZM59.4615 57.2892C59.4886 53.2046 58.3879 48.6501 55.9948 44.6326L49.1218 48.7268C50.7351 51.4351 51.4795 54.5449 51.4616 57.2362L59.4615 57.2892ZM50.0065 61.2627H55.4616V53.2627H50.0065V61.2627ZM45.2321 53.1668C45.7697 54.529 46.0082 55.9531 46.0065 57.2577L54.0065 57.2678C54.0094 55.0171 53.6038 52.5871 52.6737 50.2302L45.2321 53.1668ZM42.7725 49.3921C43.8396 50.467 44.691 51.7956 45.2321 53.1668L52.6737 50.2303C51.7472 47.8824 50.3074 45.6269 48.4499 43.7558L42.7725 49.3921ZM39.0369 46.9212C40.3901 47.4631 41.7056 48.3173 42.7725 49.3921L48.4499 43.7558C46.5923 41.8846 44.3496 40.431 42.0107 39.4945L39.0369 46.9212ZM35.0051 46.1465C36.2894 46.1449 37.693 46.3831 39.0369 46.9212L42.0107 39.4945C39.6625 38.5542 37.24 38.1436 34.9948 38.1465L35.0051 46.1465ZM30.963 46.9212C32.3069 46.3831 33.7105 46.1449 34.9948 46.1465L35.0051 38.1465C32.7599 38.1436 30.3374 38.5542 27.9892 39.4945L30.963 46.9212ZM27.2274 49.3921C28.2944 48.3173 29.6098 47.4631 30.963 46.9212L27.9893 39.4945C25.6503 40.431 23.4077 41.8846 21.55 43.7558L27.2274 49.3921ZM24.7678 53.1668C25.3089 51.7956 26.1603 50.467 27.2274 49.3921L21.55 43.7558C19.6925 45.6269 18.2528 47.8824 17.3263 50.2303L24.7678 53.1668ZM23.9934 57.2577C23.9917 55.9531 24.2303 54.529 24.7678 53.1668L17.3263 50.2302C16.3962 52.5871 15.9905 55.0171 15.9934 57.2678L23.9934 57.2577ZM14.5384 61.2627H19.9934V53.2627H14.5384V61.2627ZM14.0168 44.6131C11.6158 48.6352 10.5112 53.198 10.5385 57.2894L18.5383 57.236C18.5203 54.5407 19.2674 51.425 20.886 48.7136L14.0168 44.6131ZM37.5326 31.7049C37.0297 32.0005 36.4218 32.2304 35.7775 32.3276L36.9703 40.2382C38.6858 39.9795 40.2587 39.3822 41.5866 38.6017L37.5326 31.7049ZM38.9537 30.4631C38.5471 30.9849 38.045 31.4055 37.5415 31.6997L41.5777 38.6069C42.9077 37.8297 44.1973 36.7494 45.264 35.3805L38.9537 30.4631ZM39.8715 28.6113C39.6956 29.2817 39.3665 29.9334 38.9537 30.4631L45.264 35.3805C46.3246 34.0195 47.1505 32.3907 47.6094 30.6421L39.8715 28.6113ZM39.9821 26.5378C40.0817 27.208 40.0475 27.9408 39.8715 28.6113L47.6094 30.6421C48.0684 28.8936 48.1488 27.0687 47.8952 25.3618L39.9821 26.5378ZM39.3561 24.7459C39.6522 25.257 39.884 25.8774 39.9821 26.5378L47.8952 25.3619C47.6401 23.6452 47.0507 22.0689 46.2784 20.7358L39.3561 24.7459ZM38.121 23.3107C38.637 23.7187 39.0561 24.2251 39.351 24.7371L46.2835 20.7446C45.5147 19.4097 44.4438 18.1114 43.0829 17.0353L38.121 23.3107ZM36.3014 22.3947C36.9564 22.5692 37.5974 22.8966 38.121 23.3107L43.0829 17.0353C41.7295 15.9652 40.1065 15.1292 38.3601 14.6641L36.3014 22.3947ZM34.2769 22.2851C34.931 22.1865 35.6465 22.2203 36.3014 22.3947L38.3601 14.6641C36.6134 14.199 34.7899 14.1173 33.0841 14.3745L34.2769 22.2851ZM32.5218 22.9078C33.0247 22.6122 33.6326 22.3823 34.2769 22.2851L33.0842 14.3745C31.3686 14.6332 29.7958 15.2305 28.4679 16.011L32.5218 22.9078ZM31.1007 24.1496C31.5073 23.6278 32.0094 23.2072 32.5129 22.913L28.4767 16.0058C27.1467 16.783 25.8572 17.8633 24.7905 19.2322L31.1007 24.1496ZM30.1829 26.0014C30.3589 25.331 30.688 24.6793 31.1007 24.1496L24.7904 19.2322C23.7299 20.5932 22.9039 22.222 22.445 23.9706L30.1829 26.0014ZM30.0723 28.0749C29.9727 27.4047 30.0069 26.6719 30.1829 26.0014L22.445 23.9706C21.9861 25.7191 21.9056 27.544 22.1592 29.2508L30.0723 28.0749ZM30.6984 29.8668C30.4023 29.3557 30.1705 28.7353 30.0723 28.0749L22.1592 29.2509C22.4144 30.9675 23.0037 32.5438 23.776 33.8769L30.6984 29.8668ZM31.9334 31.302C31.4174 30.894 30.9983 30.3876 30.7035 29.8756L23.7709 33.8681C24.5397 35.203 25.6106 36.5013 26.9716 37.5774L31.9334 31.302ZM33.753 32.218C33.098 32.0435 32.457 31.7161 31.9334 31.302L26.9715 37.5774C28.3249 38.6475 29.9479 39.4835 31.6944 39.9486L33.753 32.218ZM35.7775 32.3276C35.1235 32.4262 34.4079 32.3924 33.7531 32.218L31.6944 39.9486C33.441 40.4137 35.2645 40.4954 36.9703 40.2382L35.7775 32.3276Z" fill="#7D97ED"/>
</g>
<g filter="url(#filter1_f_454_7)">
<mask id="path-3-outside-1_454_7" maskUnits="userSpaceOnUse" x="12.538" y="10.7383" width="45" height="49" fill="black">
<rect fill="white" x="12.538" y="10.7383" width="45" height="49"/>
<path fill-rule="evenodd" clip-rule="evenodd" d="M17.4514 46.6633C19.4612 43.2965 22.5549 40.4023 26.0438 38.731C24.5518 37.5426 23.3703 36.1086 22.5222 34.6363C21.6647 33.1561 21.0056 31.393 20.722 29.4851C20.4385 27.5771 20.5306 25.5243 21.0401 23.5827C21.5497 21.6411 22.4768 19.8107 23.6594 18.2932C24.8419 16.7757 26.2799 15.571 27.7516 14.7111C29.2211 13.8473 30.9714 13.1834 32.8655 12.8978C34.7596 12.6122 36.7975 12.7049 38.725 13.2182C40.6525 13.7315 42.4697 14.6654 43.9762 15.8566C45.4827 17.0477 46.6786 18.4963 47.5323 19.9787C48.3065 21.3162 48.9192 22.8807 49.2389 24.578C49.5585 26.2753 49.5851 28.1054 49.2662 29.8883C48.9474 31.6711 48.2832 33.4066 47.3622 34.9233C46.4412 36.44 45.2634 37.738 43.9899 38.7475C47.4712 40.4233 50.5551 43.3168 52.5584 46.6797C54.5616 50.0426 55.4841 53.8748 55.4616 57.2627H50.0066C50.0088 55.4851 49.6868 53.5581 48.953 51.6985C48.2191 49.839 47.0736 48.0469 45.6113 46.574C44.149 45.101 42.3699 43.947 40.5239 43.2079C38.6778 42.4687 36.7648 42.1443 35 42.1465C33.2353 42.1443 31.3222 42.4687 29.4762 43.2079C27.6301 43.947 25.8511 45.101 24.3888 46.574C22.9265 48.0469 21.7809 49.839 21.0471 51.6985C20.3133 53.5581 19.9912 55.4851 19.9935 57.2627H14.5384C14.5158 53.8694 15.4417 50.0301 17.4514 46.6633ZM36.374 36.2829C37.5539 36.105 38.6443 35.6914 39.5597 35.1533C40.4764 34.6176 41.3722 33.8672 42.1089 32.9218C42.8456 31.9765 43.4231 30.8362 43.7405 29.6267C44.058 28.4172 44.1153 27.1384 43.9387 25.9498C43.7621 24.7613 43.3515 23.663 42.8173 22.7409C42.2855 21.8174 41.5405 20.915 40.602 20.173C39.6635 19.4309 38.5315 18.8492 37.3308 18.5294C36.13 18.2097 34.8605 18.1519 33.6806 18.3298C32.5007 18.5077 31.4103 18.9213 30.4949 19.4594C29.5781 19.9951 28.6823 20.7455 27.9456 21.6909C27.209 22.6362 26.6314 23.7765 26.314 24.986C25.9966 26.1955 25.9392 27.4743 26.1158 28.6629C26.2925 29.8514 26.7031 30.9498 27.2372 31.8718C27.7691 32.7953 28.5141 33.6977 29.4525 34.4397C30.391 35.1818 31.523 35.7635 32.7238 36.0833C33.9245 36.403 35.194 36.4608 36.374 36.2829Z"/>
</mask>
<path d="M26.0438 38.731L26.9078 40.5347L29.787 39.1555L27.2898 37.1665L26.0438 38.731ZM17.4514 46.6633L15.7341 45.6382L15.7341 45.6382L17.4514 46.6633ZM22.5222 34.6363L24.2552 33.638L24.2528 33.6338L22.5222 34.6363ZM20.722 29.4851L18.7438 29.7791L18.7438 29.7791L20.722 29.4851ZM21.0401 23.5827L19.1057 23.075L19.1057 23.075L21.0401 23.5827ZM23.6594 18.2932L25.2369 19.5225L25.2369 19.5225L23.6594 18.2932ZM27.7516 14.7111L28.7606 16.4379L28.765 16.4353L27.7516 14.7111ZM32.8655 12.8978L33.1637 14.8754L33.1637 14.8754L32.8655 12.8978ZM38.725 13.2182L38.2103 15.1509L38.2103 15.1509L38.725 13.2182ZM43.9762 15.8566L45.2166 14.2877L45.2166 14.2877L43.9762 15.8566ZM47.5323 19.9787L45.7992 20.9768L45.8013 20.9805L47.5323 19.9787ZM49.2389 24.578L47.2734 24.9481L47.2734 24.9481L49.2389 24.578ZM49.2662 29.8883L47.2974 29.5362L47.2974 29.5362L49.2662 29.8883ZM47.3622 34.9233L45.6526 33.8852L45.6526 33.8852L47.3622 34.9233ZM43.9899 38.7475L42.7475 37.1803L40.2447 39.1644L43.1225 40.5496L43.9899 38.7475ZM55.4616 57.2627V59.2627H57.4484L57.4616 57.276L55.4616 57.2627ZM50.0066 57.2627L48.0066 57.2602L48.0041 59.2627H50.0066V57.2627ZM48.953 51.6985L47.0926 52.4327L47.0926 52.4327L48.953 51.6985ZM45.6113 46.574L47.0306 45.1649L47.0306 45.1649L45.6113 46.574ZM40.5239 43.2079L39.7804 45.0645L39.7804 45.0646L40.5239 43.2079ZM35 42.1465L34.9975 44.1465L35.0026 44.1465L35 42.1465ZM29.4762 43.2079L30.2196 45.0646L30.2196 45.0645L29.4762 43.2079ZM24.3888 46.574L22.9694 45.1649L22.9694 45.1649L24.3888 46.574ZM21.0471 51.6985L22.9075 52.4327L22.9075 52.4327L21.0471 51.6985ZM19.9935 57.2627V59.2627H21.996L21.9935 57.2602L19.9935 57.2627ZM14.5384 57.2627L12.5385 57.2761L12.5517 59.2627H14.5384V57.2627ZM39.5597 35.1533L38.5506 33.4265L38.5462 33.4291L39.5597 35.1533ZM36.374 36.2829L36.6722 38.2605L36.6722 38.2605L36.374 36.2829ZM42.1089 32.9218L40.5313 31.6925L40.5313 31.6925L42.1089 32.9218ZM43.7405 29.6267L41.8061 29.119L41.8061 29.119L43.7405 29.6267ZM43.9387 25.9498L41.9604 26.2438L41.9604 26.2438L43.9387 25.9498ZM42.8173 22.7409L41.0842 23.739L41.0867 23.7434L42.8173 22.7409ZM40.602 20.173L39.3616 21.7418L39.3616 21.7418L40.602 20.173ZM37.3308 18.5294L37.8454 16.5968L37.8454 16.5968L37.3308 18.5294ZM33.6806 18.3298L33.9788 20.3075L33.9788 20.3075L33.6806 18.3298ZM30.4949 19.4594L31.5039 21.1862L31.5084 21.1836L30.4949 19.4594ZM27.9456 21.6909L26.3681 20.4615L26.3681 20.4616L27.9456 21.6909ZM26.314 24.986L28.2485 25.4937L28.2485 25.4937L26.314 24.986ZM26.1158 28.6629L24.1376 28.9569L24.1376 28.9569L26.1158 28.6629ZM27.2372 31.8718L28.9704 30.8737L28.9678 30.8693L27.2372 31.8718ZM29.4525 34.4397L30.693 32.8709L30.693 32.8709L29.4525 34.4397ZM32.7238 36.0833L33.2384 34.1506L33.2384 34.1506L32.7238 36.0833ZM25.1798 36.9272C21.3173 38.7775 17.9346 41.9519 15.7341 45.6382L19.1687 47.6884C20.9878 44.6412 23.7925 42.0271 26.9078 40.5347L25.1798 36.9272ZM20.7891 35.6346C21.755 37.3114 23.0978 38.9413 24.7978 40.2954L27.2898 37.1665C26.0058 36.1438 24.9855 34.9059 24.2552 33.638L20.7891 35.6346ZM18.7438 29.7791C19.0665 31.9511 19.8151 33.9531 20.7916 35.6388L24.2528 33.6338C23.5143 32.3591 22.9446 30.835 22.7003 29.1911L18.7438 29.7791ZM19.1057 23.075C18.5254 25.2861 18.4217 27.612 18.7438 29.7791L22.7003 29.1911C22.4553 27.5423 22.5358 25.7625 22.9746 24.0904L19.1057 23.075ZM22.0818 17.0638C20.7373 18.7892 19.686 20.8639 19.1057 23.075L22.9746 24.0905C23.4135 22.4184 24.2163 20.8322 25.2369 19.5225L22.0818 17.0638ZM26.7425 12.9843C25.0642 13.965 23.4294 15.3346 22.0818 17.0638L25.2369 19.5225C26.2545 18.2168 27.4956 17.1771 28.7606 16.4379L26.7425 12.9843ZM32.5673 10.9201C30.4053 11.2461 28.4138 12.0019 26.7381 12.9869L28.765 16.4353C30.0283 15.6928 31.5374 15.1206 33.1637 14.8754L32.5673 10.9201ZM39.2397 11.2856C37.0392 10.6996 34.7243 10.5949 32.5673 10.9201L33.1637 14.8754C34.7948 14.6295 36.5557 14.7102 38.2103 15.1509L39.2397 11.2856ZM45.2166 14.2877C43.5027 12.9325 41.44 11.8715 39.2397 11.2856L38.2103 15.1509C39.865 15.5915 41.4366 16.3982 42.7357 17.4254L45.2166 14.2877ZM49.2655 18.9805C48.2933 17.2924 46.9344 15.6459 45.2166 14.2877L42.7357 17.4254C44.031 18.4496 45.0639 19.7001 45.7992 20.9768L49.2655 18.9805ZM51.2043 24.2079C50.8406 22.2765 50.1446 20.4995 49.2633 18.9768L45.8013 20.9805C46.4683 22.1329 46.9978 23.4849 47.2734 24.9481L51.2043 24.2079ZM51.235 30.2404C51.598 28.2107 51.5674 26.1358 51.2043 24.2079L47.2734 24.9481C47.5496 26.4148 47.5722 28.0001 47.2974 29.5362L51.235 30.2404ZM49.0717 35.9614C50.1189 34.2368 50.8722 32.2691 51.235 30.2403L47.2974 29.5362C47.0226 31.0731 46.4474 32.5764 45.6526 33.8852L49.0717 35.9614ZM45.2324 40.3148C46.6848 39.1634 48.0231 37.6882 49.0717 35.9614L45.6526 33.8852C44.8592 35.1919 43.842 36.3126 42.7475 37.1803L45.2324 40.3148ZM54.2766 45.6562C52.0833 41.9742 48.7113 38.8005 44.8574 36.9454L43.1225 40.5496C46.2311 42.046 49.027 44.6595 50.8401 47.7032L54.2766 45.6562ZM57.4616 57.276C57.4863 53.5397 56.4748 49.3463 54.2766 45.6562L50.8401 47.7032C52.6484 50.7388 53.4818 54.2099 53.4617 57.2495L57.4616 57.276ZM50.0066 59.2627H55.4616V55.2627H50.0066V59.2627ZM47.0926 52.4327C47.7282 54.0435 48.0085 55.7191 48.0066 57.2602L52.0066 57.2653C52.0091 55.2511 51.6453 53.0726 50.8133 50.9644L47.0926 52.4327ZM44.1919 47.983C45.4566 49.257 46.4551 50.8173 47.0926 52.4327L50.8133 50.9644C49.9832 48.8607 48.6905 46.8369 47.0306 45.1649L44.1919 47.983ZM39.7804 45.0646C41.38 45.705 42.9273 46.7091 44.1919 47.983L47.0306 45.1649C45.3706 43.4928 43.3598 42.189 41.2673 41.3512L39.7804 45.0646ZM35.0026 44.1465C36.5271 44.1446 38.1854 44.4259 39.7804 45.0645L41.2673 41.3512C39.1702 40.5115 37.0024 40.1439 34.9975 40.1465L35.0026 44.1465ZM30.2196 45.0645C31.8146 44.4259 33.4729 44.1446 34.9975 44.1465L35.0026 40.1465C32.9976 40.1439 30.8299 40.5115 28.7327 41.3512L30.2196 45.0645ZM25.8081 47.983C27.0728 46.7091 28.62 45.705 30.2196 45.0646L28.7327 41.3512C26.6403 42.189 24.6294 43.4928 22.9694 45.1649L25.8081 47.983ZM22.9075 52.4327C23.5449 50.8173 24.5434 49.257 25.8081 47.983L22.9694 45.1649C21.3095 46.8369 20.0169 48.8607 19.1867 50.9644L22.9075 52.4327ZM21.9935 57.2602C21.9915 55.7191 22.2718 54.0435 22.9075 52.4327L19.1867 50.9644C18.3548 53.0726 17.9909 55.2511 17.9935 57.2653L21.9935 57.2602ZM14.5384 59.2627H19.9935V55.2627H14.5384V59.2627ZM15.7341 45.6382C13.5288 49.3326 12.5135 53.5337 12.5385 57.2761L16.5384 57.2494C16.5181 54.205 17.3546 50.7275 19.1687 47.6884L15.7341 45.6382ZM38.5462 33.4291C37.837 33.8459 36.9879 34.1677 36.0758 34.3052L36.6722 38.2605C38.1199 38.0422 39.4515 37.5368 40.5731 36.8775L38.5462 33.4291ZM40.5313 31.6925C39.9597 32.426 39.2608 33.0115 38.5506 33.4265L40.5687 36.8801C41.6921 36.2236 42.7848 35.3083 43.6865 34.1511L40.5313 31.6925ZM41.8061 29.119C41.5594 30.0589 41.1061 30.955 40.5313 31.6925L43.6865 34.1512C44.5851 32.998 45.2868 31.6135 45.675 30.1344L41.8061 29.119ZM41.9604 26.2438C42.0985 27.1732 42.0528 28.179 41.8061 29.119L45.675 30.1344C46.0632 28.6554 46.1321 27.1035 45.917 25.6558L41.9604 26.2438ZM41.0867 23.7434C41.5018 24.46 41.823 25.3193 41.9604 26.2438L45.917 25.6558C45.7011 24.2032 45.2011 22.8659 44.5479 21.7383L41.0867 23.7434ZM39.3616 21.7418C40.0888 22.3169 40.6708 23.0212 41.0842 23.739L44.5504 21.7427C43.9001 20.6136 42.9922 19.5132 41.8425 18.6042L39.3616 21.7418ZM36.8161 20.4621C37.744 20.7092 38.6305 21.1638 39.3616 21.7418L41.8425 18.6042C40.6966 17.6981 39.3191 16.9892 37.8454 16.5968L36.8161 20.4621ZM33.9788 20.3075C34.8958 20.1692 35.8883 20.215 36.8161 20.4621L37.8454 16.5968C36.3718 16.2043 34.8253 16.1346 33.3824 16.3522L33.9788 20.3075ZM31.5084 21.1836C32.2175 20.7668 33.0667 20.445 33.9788 20.3075L33.3824 16.3522C31.9347 16.5705 30.6031 17.0759 29.4814 17.7352L31.5084 21.1836ZM29.5232 22.9202C30.0949 22.1867 30.7938 21.6012 31.5039 21.1862L29.4858 17.7326C28.3625 18.3891 27.2698 19.3044 26.3681 20.4615L29.5232 22.9202ZM28.2485 25.4937C28.4952 24.5538 28.9485 23.6577 29.5232 22.9202L26.3681 20.4616C25.4695 21.6147 24.7677 22.9992 24.3795 24.4783L28.2485 25.4937ZM28.0941 28.3689C27.956 27.4395 28.0018 26.4337 28.2485 25.4937L24.3795 24.4783C23.9914 25.9573 23.9224 27.5091 24.1376 28.9569L28.0941 28.3689ZM28.9678 30.8693C28.5527 30.1527 28.2315 29.2934 28.0941 28.3689L24.1376 28.9569C24.3534 30.4095 24.8534 31.7468 25.5067 32.8744L28.9678 30.8693ZM30.693 32.8709C29.9658 32.2958 29.3837 31.5915 28.9704 30.8737L25.5041 32.87C26.1544 33.9992 27.0624 35.0995 28.2121 36.0085L30.693 32.8709ZM33.2384 34.1506C32.3105 33.9035 31.4241 33.4489 30.693 32.8709L28.2121 36.0085C29.358 36.9146 30.7355 37.6235 32.2091 38.0159L33.2384 34.1506ZM36.0758 34.3052C35.1588 34.4435 34.1662 34.3977 33.2384 34.1506L32.2091 38.0159C33.6828 38.4084 35.2293 38.4781 36.6722 38.2605L36.0758 34.3052Z" fill="#99BCFF" mask="url(#path-3-outside-1_454_7)"/>
</g>
<path fill-rule="evenodd" clip-rule="evenodd" d="M17.4514 46.6633C19.4612 43.2965 22.5549 40.4023 26.0438 38.731C24.5518 37.5426 23.3703 36.1086 22.5222 34.6363C21.6647 33.1561 21.0056 31.393 20.722 29.4851C20.4385 27.5771 20.5306 25.5243 21.0401 23.5827C21.5497 21.6411 22.4768 19.8107 23.6594 18.2932C24.8419 16.7757 26.2799 15.571 27.7516 14.7111C29.2211 13.8473 30.9714 13.1834 32.8655 12.8978C34.7596 12.6122 36.7975 12.7049 38.725 13.2182C40.6525 13.7315 42.4697 14.6654 43.9762 15.8566C45.4827 17.0477 46.6786 18.4963 47.5323 19.9787C48.3065 21.3162 48.9192 22.8807 49.2389 24.578C49.5585 26.2753 49.5851 28.1054 49.2662 29.8883C48.9474 31.6711 48.2832 33.4066 47.3622 34.9233C46.4412 36.44 45.2634 37.738 43.9899 38.7475C47.4712 40.4233 50.5551 43.3168 52.5584 46.6797C54.5616 50.0426 55.4841 53.8748 55.4616 57.2627H50.0066C50.0088 55.4851 49.6868 53.5581 48.953 51.6985C48.2191 49.839 47.0736 48.0469 45.6113 46.574C44.149 45.101 42.3699 43.947 40.5239 43.2079C38.6778 42.4687 36.7648 42.1443 35 42.1465C33.2353 42.1443 31.3222 42.4687 29.4762 43.2079C27.6301 43.947 25.8511 45.101 24.3888 46.574C22.9265 48.0469 21.7809 49.839 21.0471 51.6985C20.3133 53.5581 19.9912 55.4851 19.9935 57.2627H14.5384C14.5158 53.8694 15.4417 50.0301 17.4514 46.6633ZM36.374 36.2829C37.5539 36.105 38.6443 35.6914 39.5597 35.1533C40.4764 34.6176 41.3722 33.8672 42.1089 32.9218C42.8456 31.9765 43.4231 30.8362 43.7405 29.6267C44.058 28.4172 44.1153 27.1384 43.9387 25.9498C43.7621 24.7613 43.3515 23.663 42.8173 22.7409C42.2855 21.8174 41.5405 20.915 40.602 20.173C39.6635 19.4309 38.5315 18.8492 37.3308 18.5294C36.13 18.2097 34.8605 18.1519 33.6806 18.3298C32.5007 18.5077 31.4103 18.9213 30.4949 19.4594C29.5781 19.9951 28.6823 20.7455 27.9456 21.6909C27.209 22.6362 26.6314 23.7765 26.314 24.986C25.9966 26.1955 25.9392 27.4743 26.1158 28.6629C26.2925 29.8514 26.7031 30.9498 27.2372 31.8718C27.7691 32.7953 28.5141 33.6977 29.4525 34.4397C30.391 35.1818 31.523 35.7635 32.7238 36.0833C33.9245 36.403 35.194 36.4608 36.374 36.2829Z" fill="#B3CAF5"/>
<path d="M26.0438 38.731L26.1129 38.8753L26.3433 38.7649L26.1435 38.6058L26.0438 38.731ZM17.4514 46.6633L17.3141 46.5813L17.3141 46.5813L17.4514 46.6633ZM22.5222 34.6363L22.6608 34.5565L22.6606 34.5561L22.5222 34.6363ZM20.722 29.4851L20.5638 29.5086L20.5638 29.5086L20.722 29.4851ZM21.0401 23.5827L20.8854 23.5421L20.8854 23.5421L21.0401 23.5827ZM23.6594 18.2932L23.7856 18.3915L23.7856 18.3915L23.6594 18.2932ZM27.7516 14.7111L27.8323 14.8492L27.8327 14.849L27.7516 14.7111ZM32.8655 12.8978L32.8893 13.056L32.8893 13.056L32.8655 12.8978ZM38.725 13.2182L38.6838 13.3728L38.6838 13.3728L38.725 13.2182ZM43.9762 15.8566L44.0754 15.731L44.0754 15.731L43.9762 15.8566ZM47.5323 19.9787L47.3937 20.0585L47.3938 20.0588L47.5323 19.9787ZM49.2389 24.578L49.0816 24.6076L49.0816 24.6076L49.2389 24.578ZM49.2662 29.8883L49.1087 29.8601L49.1087 29.8601L49.2662 29.8883ZM47.3622 34.9233L47.2254 34.8403L47.2254 34.8403L47.3622 34.9233ZM43.9899 38.7475L43.8905 38.6221L43.6903 38.7809L43.9205 38.8917L43.9899 38.7475ZM55.4616 57.2627V57.4227H55.6206L55.6216 57.2638L55.4616 57.2627ZM50.0066 57.2627L49.8466 57.2625L49.8464 57.4227H50.0066V57.2627ZM48.953 51.6985L48.8041 51.7573L48.8041 51.7573L48.953 51.6985ZM45.6113 46.574L45.7248 46.4612L45.7248 46.4612L45.6113 46.574ZM40.5239 43.2079L40.4644 43.3564L40.4644 43.3564L40.5239 43.2079ZM35 42.1465L34.9998 42.3065L35.0002 42.3065L35 42.1465ZM29.4762 43.2079L29.5357 43.3564L29.5357 43.3564L29.4762 43.2079ZM24.3888 46.574L24.2752 46.4612L24.2752 46.4612L24.3888 46.574ZM21.0471 51.6985L21.1959 51.7573L21.1959 51.7573L21.0471 51.6985ZM19.9935 57.2627V57.4227H20.1537L20.1535 57.2625L19.9935 57.2627ZM14.5384 57.2627L14.3784 57.2638L14.3795 57.4227H14.5384V57.2627ZM39.5597 35.1533L39.4789 35.0151L39.4786 35.0154L39.5597 35.1533ZM36.374 36.2829L36.3978 36.4411L36.3978 36.4411L36.374 36.2829ZM42.1089 32.9218L41.9827 32.8235L41.9827 32.8235L42.1089 32.9218ZM43.7405 29.6267L43.5858 29.5861L43.5858 29.5861L43.7405 29.6267ZM43.9387 25.9498L43.7804 25.9733L43.7804 25.9733L43.9387 25.9498ZM42.8173 22.7409L42.6787 22.8207L42.6789 22.8211L42.8173 22.7409ZM40.602 20.173L40.5028 20.2985L40.5028 20.2985L40.602 20.173ZM37.3308 18.5294L37.372 18.3748L37.372 18.3748L37.3308 18.5294ZM33.6806 18.3298L33.7044 18.488L33.7044 18.488L33.6806 18.3298ZM30.4949 19.4594L30.5756 19.5976L30.576 19.5974L30.4949 19.4594ZM27.9456 21.6909L27.8194 21.5925L27.8194 21.5925L27.9456 21.6909ZM26.314 24.986L26.4688 25.0266L26.4688 25.0266L26.314 24.986ZM26.1158 28.6629L25.9576 28.6864L25.9576 28.6864L26.1158 28.6629ZM27.2372 31.8718L27.3759 31.792L27.3757 31.7916L27.2372 31.8718ZM29.4525 34.4397L29.5518 34.3142L29.5518 34.3142L29.4525 34.4397ZM32.7238 36.0833L32.7649 35.9287L32.7649 35.9287L32.7238 36.0833ZM25.9747 38.5867C22.4559 40.2723 19.3391 43.189 17.3141 46.5813L17.5888 46.7453C19.5833 43.4041 22.6539 40.5323 26.1129 38.8753L25.9747 38.5867ZM22.3835 34.7162C23.241 36.2049 24.4354 37.6545 25.9441 38.8561L26.1435 38.6058C24.6681 37.4307 23.4995 36.0124 22.6608 34.5565L22.3835 34.7162ZM20.5638 29.5086C20.8505 31.4377 21.5167 33.2199 22.3837 34.7165L22.6606 34.5561C21.8127 33.0923 21.1607 31.3484 20.8803 29.4616L20.5638 29.5086ZM20.8854 23.5421C20.3702 25.5053 20.2772 27.5799 20.5638 29.5086L20.8803 29.4616C20.5999 27.5743 20.691 25.5434 21.1949 23.6234L20.8854 23.5421ZM23.5332 18.1948C22.3377 19.729 21.4006 21.579 20.8854 23.5421L21.1949 23.6234C21.6988 21.7033 22.616 19.8924 23.7856 18.3915L23.5332 18.1948ZM27.6709 14.5729C26.1827 15.4425 24.7289 16.6604 23.5332 18.1948L23.7856 18.3915C24.9549 16.891 26.3772 15.6995 27.8323 14.8492L27.6709 14.5729ZM32.8416 12.7396C30.9261 13.0284 29.1565 13.6997 27.6705 14.5731L27.8327 14.849C29.2856 13.995 31.0166 13.3384 32.8893 13.056L32.8416 12.7396ZM38.7662 13.0636C36.8168 12.5445 34.7568 12.4508 32.8416 12.7396L32.8893 13.056C34.7624 12.7736 36.7781 12.8653 38.6838 13.3728L38.7662 13.0636ZM44.0754 15.731C42.5523 14.5267 40.7155 13.5827 38.7662 13.0636L38.6838 13.3728C40.5895 13.8803 42.387 14.804 43.8769 15.9821L44.0754 15.731ZM47.671 19.8988C46.8078 18.4 45.5988 16.9356 44.0754 15.731L43.8769 15.9821C45.3666 17.1599 46.5494 18.5926 47.3937 20.0585L47.671 19.8988ZM49.3961 24.5484C49.0729 22.8324 48.4535 21.2509 47.6708 19.8985L47.3938 20.0588C48.1594 21.3816 48.7655 22.929 49.0816 24.6076L49.3961 24.5484ZM49.4237 29.9164C49.7461 28.1139 49.7192 26.2641 49.3961 24.5484L49.0816 24.6076C49.3978 26.2865 49.424 28.097 49.1087 29.8601L49.4237 29.9164ZM47.4989 35.0064C48.43 33.473 49.1014 31.7189 49.4237 29.9164L49.1087 29.8601C48.7934 31.6232 48.1363 33.3402 47.2254 34.8403L47.4989 35.0064ZM44.0893 38.8729C45.3771 37.852 46.5677 36.5399 47.4989 35.0064L47.2254 34.8403C46.3146 36.3402 45.1496 37.6239 43.8905 38.6221L44.0893 38.8729ZM52.6958 46.5978C50.6774 43.2094 47.5704 40.2934 44.0593 38.6033L43.9205 38.8917C47.372 40.5531 50.4329 43.4242 52.4209 46.7616L52.6958 46.5978ZM55.6216 57.2638C55.6443 53.848 54.7146 49.9869 52.6958 46.5978L52.4209 46.7616C54.4085 50.0983 55.3239 53.9016 55.3016 57.2617L55.6216 57.2638ZM50.0066 57.4227H55.4616V57.1027H50.0066V57.4227ZM48.8041 51.7573C49.5301 53.5969 49.8488 55.5038 49.8466 57.2625L50.1666 57.2629C50.1689 55.4664 49.8435 53.5192 49.1018 51.6398L48.8041 51.7573ZM45.4977 46.6867C46.9442 48.1437 48.078 49.9173 48.8041 51.7573L49.1018 51.6398C48.3603 49.7607 47.2029 47.9501 45.7248 46.4612L45.4977 46.6867ZM40.4644 43.3564C42.2907 44.0877 44.0512 45.2296 45.4977 46.6867L45.7248 46.4612C44.2467 44.9723 42.4491 43.8064 40.5833 43.0593L40.4644 43.3564ZM35.0002 42.3065C36.7457 42.3043 38.6384 42.6253 40.4644 43.3564L40.5833 43.0593C38.7172 42.3121 36.7838 41.9842 34.9998 41.9865L35.0002 42.3065ZM29.5357 43.3564C31.3616 42.6253 33.2543 42.3043 34.9998 42.3065L35.0002 41.9865C33.2163 41.9842 31.2828 42.3121 29.4167 43.0593L29.5357 43.3564ZM24.5023 46.6867C25.9488 45.2296 27.7093 44.0877 29.5357 43.3564L29.4167 43.0593C27.5509 43.8064 25.7533 44.9723 24.2752 46.4612L24.5023 46.6867ZM21.1959 51.7573C21.922 49.9173 23.0558 48.1437 24.5023 46.6867L24.2752 46.4612C22.7971 47.9501 21.6398 49.7607 20.8983 51.6398L21.1959 51.7573ZM20.1535 57.2625C20.1512 55.5038 20.47 53.5969 21.1959 51.7573L20.8983 51.6398C20.1566 53.5192 19.8312 55.4664 19.8335 57.2629L20.1535 57.2625ZM14.5384 57.4227H19.9935V57.1027H14.5384V57.4227ZM17.3141 46.5813C15.2886 49.9743 14.3556 53.8425 14.3784 57.2638L14.6984 57.2617C14.676 53.8962 15.5947 50.0859 17.5888 46.7453L17.3141 46.5813ZM39.4786 35.0154C38.5797 35.5437 37.5086 35.95 36.3501 36.1247L36.3978 36.4411C37.5992 36.2599 38.7088 35.839 39.6407 35.2912L39.4786 35.0154ZM41.9827 32.8235C41.2592 33.7519 40.3792 34.4891 39.4789 35.0151L39.6404 35.2914C40.5737 34.7461 41.4852 33.9824 42.2351 33.0202L41.9827 32.8235ZM43.5858 29.5861C43.274 30.774 42.7064 31.8947 41.9827 32.8235L42.2351 33.0202C42.9847 32.0582 43.5722 30.8984 43.8953 29.6673L43.5858 29.5861ZM43.7804 25.9733C43.954 27.1412 43.8976 28.3981 43.5858 29.5861L43.8953 29.6673C44.2184 28.4362 44.2767 27.1356 44.097 25.9263L43.7804 25.9733ZM42.6789 22.8211C43.2035 23.7267 43.607 24.8059 43.7804 25.9733L44.097 25.9263C43.9172 24.7166 43.4994 23.5992 42.9558 22.6607L42.6789 22.8211ZM40.5028 20.2985C41.4244 21.0272 42.1563 21.9137 42.6787 22.8207L42.956 22.661C42.4147 21.7211 41.6566 20.8029 40.7013 20.0475L40.5028 20.2985ZM37.2896 18.684C38.4685 18.998 39.5809 19.5696 40.5028 20.2985L40.7013 20.0475C39.7462 19.2923 38.5945 18.7004 37.372 18.3748L37.2896 18.684ZM33.7044 18.488C34.8633 18.3133 36.1107 18.3701 37.2896 18.684L37.372 18.3748C36.1494 18.0493 34.8577 17.9905 33.6567 18.1716L33.7044 18.488ZM30.576 19.5974C31.4749 19.069 32.5459 18.6627 33.7044 18.488L33.6567 18.1716C32.4554 18.3528 31.3457 18.7737 30.4138 19.3215L30.576 19.5974ZM28.0719 21.7892C28.7953 20.8608 29.6754 20.1236 30.5756 19.5976L30.4142 19.3213C29.4809 19.8666 28.5693 20.6303 27.8194 21.5925L28.0719 21.7892ZM26.4688 25.0266C26.7805 23.8387 27.3481 22.718 28.0719 21.7892L27.8194 21.5925C27.0698 22.5545 26.4823 23.7143 26.1593 24.9454L26.4688 25.0266ZM26.2741 28.6394C26.1006 27.4715 26.157 26.2146 26.4688 25.0266L26.1593 24.9454C25.8362 26.1765 25.7779 27.4771 25.9576 28.6864L26.2741 28.6394ZM27.3757 31.7916C26.851 30.886 26.4476 29.8068 26.2741 28.6394L25.9576 28.6864C26.1374 29.8961 26.5551 31.0135 27.0988 31.9521L27.3757 31.7916ZM29.5518 34.3142C28.6302 33.5855 27.8982 32.699 27.3759 31.792L27.0986 31.9517C27.6399 32.8916 28.3979 33.8098 29.3533 34.5652L29.5518 34.3142ZM32.7649 35.9287C31.586 35.6147 30.4737 35.0431 29.5518 34.3142L29.3533 34.5652C30.3084 35.3204 31.46 35.9123 32.6826 36.2379L32.7649 35.9287ZM36.3501 36.1247C35.1912 36.2994 33.9439 36.2426 32.7649 35.9287L32.6826 36.2379C33.9052 36.5635 35.1969 36.6222 36.3978 36.4411L36.3501 36.1247Z" fill="#BCD3FF"/>
</g>
<defs>
<filter id="filter0_f_454_7" x="-0.462036" y="-2.26172" width="70.924" height="74.5254" filterUnits="userSpaceOnUse" color-interpolation-filters="sRGB">
<feFlood flood-opacity="0" result="BackgroundImageFix"/>
<feBlend mode="normal" in="SourceGraphic" in2="BackgroundImageFix" result="shape"/>
<feGaussianBlur stdDeviation="5.5" result="effect1_foregroundBlur_454_7"/>
</filter>
<filter id="filter1_f_454_7" x="8.53802" y="6.73828" width="52.924" height="56.5254" filterUnits="userSpaceOnUse" color-interpolation-filters="sRGB">
<feFlood flood-opacity="0" result="BackgroundImageFix"/>
<feBlend mode="normal" in="SourceGraphic" in2="BackgroundImageFix" result="shape"/>
<feGaussianBlur stdDeviation="2" result="effect1_foregroundBlur_454_7"/>
</filter>
<clipPath id="clip0_454_7">
<rect width="70" height="70" fill="white"/>
</clipPath>
</defs>
</svg>
