<svg width="70" height="70" viewBox="0 0 70 70" fill="none" xmlns="http://www.w3.org/2000/svg">
<path fill-rule="evenodd" clip-rule="evenodd" d="M17.4514 46.6633C19.4612 43.2965 22.5548 40.4023 26.0437 38.731C24.5517 37.5426 23.3702 36.1086 22.5221 34.6363C21.6646 33.1561 21.0055 31.393 20.722 29.4851C20.4385 27.5771 20.5305 25.5243 21.0401 23.5827C21.5497 21.6411 22.4768 19.8107 23.6593 18.2932C24.8419 16.7757 26.2799 15.571 27.7515 14.7111C29.221 13.8473 30.9713 13.1834 32.8654 12.8978C34.7595 12.6122 36.7974 12.7049 38.7249 13.2182C40.6525 13.7315 42.4696 14.6654 43.9761 15.8566C45.4826 17.0477 46.6785 18.4963 47.5323 19.9787C48.3064 21.3162 48.9192 22.8807 49.2388 24.578C49.5585 26.2753 49.585 28.1054 49.2662 29.8883C48.9473 31.6711 48.2831 33.4066 47.3621 34.9233C46.4411 36.44 45.2633 37.738 43.9899 38.7475C47.4711 40.4233 50.5551 43.3168 52.5583 46.6797C54.5615 50.0426 55.484 53.8748 55.4616 57.2627H50.0065C50.0088 55.4851 49.6867 53.5581 48.9529 51.6985C48.2191 49.839 47.0735 48.0469 45.6112 46.574C44.1489 45.101 42.3699 43.947 40.5238 43.2079C38.6778 42.4687 36.7647 42.1443 35 42.1465C33.2352 42.1443 31.3222 42.4687 29.4761 43.2079C27.6301 43.947 25.851 45.101 24.3887 46.574C22.9264 48.0469 21.7808 49.839 21.047 51.6985C20.3132 53.5581 19.9911 55.4851 19.9934 57.2627H14.5384C14.5157 53.8694 15.4416 50.0301 17.4514 46.6633ZM36.3739 36.2829C37.5538 36.105 38.6442 35.6914 39.5596 35.1533C40.4764 34.6176 41.3722 33.8672 42.1088 32.9218C42.8455 31.9765 43.423 30.8362 43.7405 29.6267C44.0579 28.4172 44.1153 27.1384 43.9386 25.9498C43.762 24.7613 43.3514 23.663 42.8172 22.7409C42.2854 21.8174 41.5404 20.915 40.602 20.173C39.6635 19.4309 38.5315 18.8492 37.3307 18.5294C36.13 18.2097 34.8605 18.1519 33.6805 18.3298C32.5006 18.5077 31.4102 18.9213 30.4948 19.4594C29.5781 19.9951 28.6823 20.7455 27.9456 21.6909C27.2089 22.6362 26.6314 23.7765 26.314 24.986C25.9965 26.1955 25.9392 27.4743 26.1158 28.6629C26.2924 29.8514 26.703 30.9498 27.2372 31.8718C27.769 32.7953 28.514 33.6977 29.4525 34.4397C30.391 35.1818 31.523 35.7635 32.7237 36.0833C33.9245 36.403 35.194 36.4608 36.3739 36.2829Z" fill="#9A9AAF"/>
<path d="M26.0437 38.731L26.1129 38.8753L26.3432 38.7649L26.1434 38.6058L26.0437 38.731ZM17.4514 46.6633L17.314 46.5813L17.314 46.5813L17.4514 46.6633ZM22.5221 34.6363L22.6608 34.5565L22.6606 34.5561L22.5221 34.6363ZM20.722 29.4851L20.5637 29.5086L20.5637 29.5086L20.722 29.4851ZM21.0401 23.5827L20.8853 23.5421L20.8853 23.5421L21.0401 23.5827ZM23.6593 18.2932L23.7855 18.3915L23.7855 18.3915L23.6593 18.2932ZM27.7515 14.7111L27.8322 14.8492L27.8326 14.849L27.7515 14.7111ZM32.8654 12.8978L32.8893 13.056L32.8893 13.056L32.8654 12.8978ZM38.7249 13.2182L38.6838 13.3728L38.6838 13.3728L38.7249 13.2182ZM43.9761 15.8566L44.0754 15.731L44.0754 15.731L43.9761 15.8566ZM47.5323 19.9787L47.3936 20.0585L47.3938 20.0588L47.5323 19.9787ZM49.2388 24.578L49.0816 24.6076L49.0816 24.6076L49.2388 24.578ZM49.2662 29.8883L49.1087 29.8601L49.1087 29.8601L49.2662 29.8883ZM47.3621 34.9233L47.2253 34.8403L47.2253 34.8403L47.3621 34.9233ZM43.9899 38.7475L43.8905 38.6221L43.6902 38.7809L43.9205 38.8917L43.9899 38.7475ZM55.4616 57.2627V57.4227H55.6205L55.6216 57.2638L55.4616 57.2627ZM50.0065 57.2627L49.8465 57.2625L49.8463 57.4227H50.0065V57.2627ZM48.9529 51.6985L48.8041 51.7573L48.8041 51.7573L48.9529 51.6985ZM45.6112 46.574L45.7248 46.4612L45.7248 46.4612L45.6112 46.574ZM40.5238 43.2079L40.4643 43.3564L40.4643 43.3564L40.5238 43.2079ZM35 42.1465L34.9998 42.3065L35.0002 42.3065L35 42.1465ZM29.4761 43.2079L29.5356 43.3564L29.5356 43.3564L29.4761 43.2079ZM24.3887 46.574L24.2752 46.4612L24.2752 46.4612L24.3887 46.574ZM21.047 51.6985L21.1959 51.7573L21.1959 51.7573L21.047 51.6985ZM19.9934 57.2627V57.4227H20.1536L20.1534 57.2625L19.9934 57.2627ZM14.5384 57.2627L14.3784 57.2638L14.3794 57.4227H14.5384V57.2627ZM39.5596 35.1533L39.4789 35.0151L39.4785 35.0154L39.5596 35.1533ZM36.3739 36.2829L36.3978 36.4411L36.3978 36.4411L36.3739 36.2829ZM42.1088 32.9218L41.9826 32.8235L41.9826 32.8235L42.1088 32.9218ZM43.7405 29.6267L43.5857 29.5861L43.5857 29.5861L43.7405 29.6267ZM43.9386 25.9498L43.7804 25.9733L43.7804 25.9733L43.9386 25.9498ZM42.8172 22.7409L42.6786 22.8207L42.6788 22.8211L42.8172 22.7409ZM40.602 20.173L40.5027 20.2985L40.5027 20.2985L40.602 20.173ZM37.3307 18.5294L37.3719 18.3748L37.3719 18.3748L37.3307 18.5294ZM33.6805 18.3298L33.7044 18.488L33.7044 18.488L33.6805 18.3298ZM30.4948 19.4594L30.5756 19.5976L30.5759 19.5974L30.4948 19.4594ZM27.9456 21.6909L27.8194 21.5925L27.8194 21.5925L27.9456 21.6909ZM26.314 24.986L26.4687 25.0266L26.4687 25.0266L26.314 24.986ZM26.1158 28.6629L25.9575 28.6864L25.9575 28.6864L26.1158 28.6629ZM27.2372 31.8718L27.3758 31.792L27.3756 31.7916L27.2372 31.8718ZM29.4525 34.4397L29.5517 34.3142L29.5517 34.3142L29.4525 34.4397ZM32.7237 36.0833L32.7649 35.9287L32.7649 35.9287L32.7237 36.0833ZM25.9746 38.5867C22.4558 40.2723 19.339 43.189 17.314 46.5813L17.5888 46.7453C19.5833 43.4041 22.6538 40.5323 26.1129 38.8753L25.9746 38.5867ZM22.3835 34.7162C23.241 36.2049 24.4354 37.6545 25.9441 38.8561L26.1434 38.6058C24.668 37.4307 23.4994 36.0124 22.6608 34.5565L22.3835 34.7162ZM20.5637 29.5086C20.8504 31.4377 21.5167 33.2199 22.3837 34.7165L22.6606 34.5561C21.8126 33.0923 21.1606 31.3484 20.8802 29.4616L20.5637 29.5086ZM20.8853 23.5421C20.3701 25.5053 20.2771 27.5799 20.5637 29.5086L20.8802 29.4616C20.5998 27.5743 20.6909 25.5434 21.1948 23.6234L20.8853 23.5421ZM23.5331 18.1948C22.3376 19.729 21.4006 21.579 20.8853 23.5421L21.1948 23.6234C21.6988 21.7033 22.6159 19.8924 23.7855 18.3915L23.5331 18.1948ZM27.6708 14.5729C26.1826 15.4425 24.7289 16.6604 23.5331 18.1948L23.7855 18.3915C24.9549 16.891 26.3771 15.6995 27.8322 14.8492L27.6708 14.5729ZM32.8415 12.7396C30.926 13.0284 29.1564 13.6997 27.6704 14.5731L27.8326 14.849C29.2856 13.995 31.0166 13.3384 32.8893 13.056L32.8415 12.7396ZM38.7661 13.0636C36.8167 12.5445 34.7567 12.4508 32.8415 12.7396L32.8893 13.056C34.7623 12.7736 36.7781 12.8653 38.6838 13.3728L38.7661 13.0636ZM44.0754 15.731C42.5522 14.5267 40.7155 13.5827 38.7661 13.0636L38.6838 13.3728C40.5895 13.8803 42.387 14.804 43.8769 15.9821L44.0754 15.731ZM47.6709 19.8988C46.8077 18.4 45.5988 16.9356 44.0754 15.731L43.8769 15.9821C45.3665 17.1599 46.5494 18.5926 47.3936 20.0585L47.6709 19.8988ZM49.396 24.5484C49.0729 22.8324 48.4535 21.2509 47.6707 19.8985L47.3938 20.0588C48.1594 21.3816 48.7654 22.929 49.0816 24.6076L49.396 24.5484ZM49.4237 29.9164C49.746 28.1139 49.7192 26.2641 49.396 24.5484L49.0816 24.6076C49.3977 26.2865 49.424 28.097 49.1087 29.8601L49.4237 29.9164ZM47.4989 35.0064C48.43 33.473 49.1013 31.7189 49.4237 29.9164L49.1087 29.8601C48.7933 31.6232 48.1362 33.3402 47.2253 34.8403L47.4989 35.0064ZM44.0893 38.8729C45.377 37.852 46.5676 36.5399 47.4989 35.0064L47.2253 34.8403C46.3145 36.3402 45.1496 37.6239 43.8905 38.6221L44.0893 38.8729ZM52.6958 46.5978C50.6773 43.2094 47.5703 40.2934 44.0593 38.6033L43.9205 38.8917C47.3719 40.5531 50.4328 43.4242 52.4208 46.7616L52.6958 46.5978ZM55.6216 57.2638C55.6442 53.848 54.7146 49.9869 52.6958 46.5978L52.4208 46.7616C54.4085 50.0983 55.3238 53.9016 55.3016 57.2617L55.6216 57.2638ZM50.0065 57.4227H55.4616V57.1027H50.0065V57.4227ZM48.8041 51.7573C49.53 53.5969 49.8488 55.5038 49.8465 57.2625L50.1665 57.2629C50.1688 55.4664 49.8434 53.5192 49.1017 51.6398L48.8041 51.7573ZM45.4977 46.6867C46.9442 48.1437 48.078 49.9173 48.8041 51.7573L49.1017 51.6398C48.3602 49.7607 47.2029 47.9501 45.7248 46.4612L45.4977 46.6867ZM40.4643 43.3564C42.2907 44.0877 44.0512 45.2296 45.4977 46.6867L45.7248 46.4612C44.2466 44.9723 42.449 43.8064 40.5833 43.0593L40.4643 43.3564ZM35.0002 42.3065C36.7457 42.3043 38.6384 42.6253 40.4643 43.3564L40.5833 43.0593C38.7171 42.3121 36.7837 41.9842 34.9998 41.9865L35.0002 42.3065ZM29.5356 43.3564C31.3616 42.6253 33.2542 42.3043 34.9998 42.3065L35.0002 41.9865C33.2162 41.9842 31.2828 42.3121 29.4166 43.0593L29.5356 43.3564ZM24.5023 46.6867C25.9488 45.2296 27.7093 44.0877 29.5356 43.3564L29.4166 43.0593C27.5509 43.8064 25.7533 44.9723 24.2752 46.4612L24.5023 46.6867ZM21.1959 51.7573C21.922 49.9173 23.0558 48.1437 24.5023 46.6867L24.2752 46.4612C22.7971 47.9501 21.6397 49.7607 20.8982 51.6398L21.1959 51.7573ZM20.1534 57.2625C20.1512 55.5038 20.4699 53.5969 21.1959 51.7573L20.8982 51.6398C20.1565 53.5192 19.8311 55.4664 19.8334 57.2629L20.1534 57.2625ZM14.5384 57.4227H19.9934V57.1027H14.5384V57.4227ZM17.314 46.5813C15.2886 49.9743 14.3555 53.8425 14.3784 57.2638L14.6984 57.2617C14.6759 53.8962 15.5946 50.0859 17.5888 46.7453L17.314 46.5813ZM39.4785 35.0154C38.5796 35.5437 37.5086 35.95 36.3501 36.1247L36.3978 36.4411C37.5991 36.2599 38.7088 35.839 39.6407 35.2912L39.4785 35.0154ZM41.9826 32.8235C41.2592 33.7519 40.3791 34.4891 39.4789 35.0151L39.6403 35.2914C40.5736 34.7461 41.4852 33.9824 42.235 33.0202L41.9826 32.8235ZM43.5857 29.5861C43.2739 30.774 42.7064 31.8947 41.9826 32.8235L42.235 33.0202C42.9847 32.0582 43.5721 30.8984 43.8952 29.6673L43.5857 29.5861ZM43.7804 25.9733C43.9539 27.1412 43.8975 28.3981 43.5857 29.5861L43.8952 29.6673C44.2183 28.4362 44.2766 27.1356 44.0969 25.9263L43.7804 25.9733ZM42.6788 22.8211C43.2034 23.7267 43.6069 24.8059 43.7804 25.9733L44.0969 25.9263C43.9171 24.7166 43.4994 23.5992 42.9557 22.6607L42.6788 22.8211ZM40.5027 20.2985C41.4243 21.0272 42.1562 21.9137 42.6786 22.8207L42.9559 22.661C42.4146 21.7211 41.6566 20.8029 40.7012 20.0475L40.5027 20.2985ZM37.2895 18.684C38.4685 18.998 39.5808 19.5696 40.5027 20.2985L40.7012 20.0475C39.7461 19.2923 38.5945 18.7004 37.3719 18.3748L37.2895 18.684ZM33.7044 18.488C34.8633 18.3133 36.1106 18.3701 37.2895 18.684L37.3719 18.3748C36.1493 18.0493 34.8576 17.9905 33.6567 18.1716L33.7044 18.488ZM30.5759 19.5974C31.4748 19.069 32.5459 18.6627 33.7044 18.488L33.6567 18.1716C32.4553 18.3528 31.3457 18.7737 30.4138 19.3215L30.5759 19.5974ZM28.0718 21.7892C28.7953 20.8608 29.6753 20.1236 30.5756 19.5976L30.4141 19.3213C29.4808 19.8666 28.5693 20.6303 27.8194 21.5925L28.0718 21.7892ZM26.4687 25.0266C26.7805 23.8387 27.3481 22.718 28.0718 21.7892L27.8194 21.5925C27.0698 22.5545 26.4823 23.7143 26.1592 24.9454L26.4687 25.0266ZM26.274 28.6394C26.1005 27.4715 26.1569 26.2146 26.4687 25.0266L26.1592 24.9454C25.8361 26.1765 25.7778 27.4771 25.9575 28.6864L26.274 28.6394ZM27.3756 31.7916C26.851 30.886 26.4475 29.8068 26.274 28.6394L25.9575 28.6864C26.1373 29.8961 26.555 31.0135 27.0987 31.9521L27.3756 31.7916ZM29.5517 34.3142C28.6301 33.5855 27.8982 32.699 27.3758 31.792L27.0985 31.9517C27.6398 32.8916 28.3979 33.8098 29.3532 34.5652L29.5517 34.3142ZM32.7649 35.9287C31.586 35.6147 30.4736 35.0431 29.5517 34.3142L29.3532 34.5652C30.3083 35.3204 31.46 35.9123 32.6825 36.2379L32.7649 35.9287ZM36.3501 36.1247C35.1912 36.2994 33.9438 36.2426 32.7649 35.9287L32.6825 36.2379C33.9051 36.5635 35.1968 36.6222 36.3978 36.4411L36.3501 36.1247Z" fill="#9A9AAF"/>
</svg>
